<svg xmlns="http://www.w3.org/2000/svg" xmlns:xlink="http://www.w3.org/1999/xlink" version="1.1" width="1000" height="1000" viewBox="0 0 1000 1000" xml:space="preserve">
<desc>Created with Fabric.js 3.5.0</desc>
<defs>
</defs>
<rect x="0" y="0" width="100%" height="100%" fill="rgba(255,255,255,0)"/>
<g transform="matrix(1.2308 0 0 1.3104 615.4 499.9855)" id="835953">
<g style="" vector-effect="non-scaling-stroke">
		<g transform="matrix(2.3583 0 0 2.3583 95.9799 0.2529)" id="text-0">
<path style="stroke: none; stroke-width: 1; stroke-dasharray: none; stroke-linecap: butt; stroke-dashoffset: 0; stroke-linejoin: miter; stroke-miterlimit: 4; is-custom-font: none; font-file-url: none; fill: rgb(230,177,126); fill-rule: nonzero; opacity: 1;" transform=" translate(-86.01, 16.15)" d="M -0.45 1.9 L -2.05 3.4 Q -3.2 3.4 -3.6 2.65 L -3.6 2.65 Q -3.75 2.4 -3.75 2.25 Q -3.75 2.1 -3.65 2 L -3.65 2 Q 0.9 -1.35 7.15 -8.5 L 7.15 -8.5 Q 4.05 -10.2 2.35 -12.58 Q 0.65 -14.95 0.65 -16.98 Q 0.65 -19 1.9 -20.15 Q 3.15 -21.3 5.55 -21.3 L 5.55 -21.3 Q 10.1 -21.3 13.3 -16.05 L 13.3 -16.05 Q 14.7 -17.8 17.78 -21.75 Q 20.85 -25.7 22.25 -27.43 Q 23.65 -29.15 25.7 -31.5 L 25.7 -31.5 Q 29.5 -35.7 31.45 -35.7 L 31.45 -35.7 Q 32.95 -35.65 32.95 -34.1 L 32.95 -34.1 Q 32.95 -32.45 31.83 -29.58 Q 30.7 -26.7 30.03 -25.03 Q 29.35 -23.35 28.03 -20.58 Q 26.7 -17.8 25.95 -16.18 Q 25.2 -14.55 23.65 -11.38 Q 22.1 -8.2 21.5 -6.95 L 21.5 -6.95 Q 25.35 -7.2 27.6 -8.3 L 27.6 -8.3 Q 28 -8.5 28.1 -8.75 Q 28.2 -9 28.38 -9 Q 28.55 -9 28.73 -8.8 Q 28.9 -8.6 28.9 -8.4 L 28.9 -8.4 Q 28.9 -6.7 21.1 -6.05 L 21.1 -6.05 Q 19.15 -2 18.4 -0.2 L 18.4 -0.2 Q 18.2 0.2 17.8 0.2 L 17.8 0.2 Q 16.75 0.2 16.75 -1.8 L 16.75 -1.8 Q 16.55 -3.35 16.05 -6.05 L 16.05 -6.05 Q 12.1 -6.35 8.65 -7.8 L 8.65 -7.8 L 8.65 -7.75 Q 6.5 -5.1 3.83 -2.33 Q 1.15 0.45 -0.45 1.9 L -0.45 1.9 Z M 19.65 -6.9 L 19.65 -6.9 Q 31.1 -30.7 31.1 -33.45 L 31.1 -33.45 Q 31.1 -34.3 30.5 -34.3 L 30.5 -34.3 Q 29.6 -34.3 27.98 -32.5 Q 26.35 -30.7 25.35 -29.5 Q 24.35 -28.3 22.7 -26.18 Q 21.05 -24.05 19.98 -22.65 Q 18.9 -21.25 16.95 -18.63 Q 15 -16 14.05 -14.75 L 14.05 -14.75 Q 15.6 -11.85 16.85 -7.1 L 16.85 -7.1 Q 18.05 -6.9 19.65 -6.9 Z M 12.75 -15.3 L 12.75 -15.3 Q 9.8 -20.4 5.75 -20.4 L 5.75 -20.4 Q 3.95 -20.4 3.05 -19.65 Q 2.15 -18.9 2.15 -17.43 Q 2.15 -15.95 3.83 -13.78 Q 5.5 -11.6 8.35 -9.95 L 8.35 -9.95 Q 9.85 -11.7 12.75 -15.3 Z M 13.45 -13.95 L 13.45 -13.95 Q 11.85 -11.8 9.75 -9.15 L 9.75 -9.15 Q 12.7 -7.75 15.75 -7.25 L 15.75 -7.25 Q 14.7 -11.45 13.45 -13.95 Z M 19.2 -5.95 L 19.2 -5.95 L 17.1 -5.95 L 17.7 -2.8 Q 18.3 -4 19.2 -5.95 Z M 27.95 0.8 L 27.95 0.8 Q 25.7 0.8 25.7 -1.65 L 25.7 -1.65 Q 25.7 -4.9 29.22 -10.98 Q 32.75 -17.05 37.27 -21.88 Q 41.8 -26.7 44.4 -26.7 L 44.4 -26.7 Q 45.35 -26.7 45.35 -25.35 L 45.35 -25.35 Q 45.35 -23.25 41.82 -18.5 Q 38.3 -13.75 34.25 -9.6 Q 30.2 -5.45 28 -3.9 L 28 -3.9 Q 27.9 -3.1 27.9 -2.83 Q 27.9 -2.55 27.95 -2.2 Q 28 -1.85 28.35 -1.3 Q 28.7 -0.75 29.52 -0.75 Q 30.35 -0.75 32.45 -1.73 Q 34.55 -2.7 36.15 -3.7 L 36.15 -3.7 L 37.75 -4.7 Q 37.8 -4.6 37.8 -4.3 Q 37.8 -4 37.35 -3.8 L 37.35 -3.8 Q 30.6 0.8 27.95 0.8 Z M 43.55 -24.15 L 43.55 -24.15 Q 43.5 -25.25 42.9 -25.25 L 42.9 -25.25 Q 41.35 -25.25 38.2 -21.75 Q 35.05 -18.25 32.1 -13.38 Q 29.15 -8.5 28.25 -5 L 28.25 -5 Q 30.35 -6.7 33.65 -10 Q 36.95 -13.3 40.15 -17.55 Q 43.35 -21.8 43.55 -24.15 Z M 45.2 -15.25 L 45.2 -15.25 Q 45.95 -15.25 45.95 -14.5 Q 45.95 -13.75 45.25 -12.98 Q 44.55 -12.2 43.7 -12.2 L 43.7 -12.2 Q 43 -12.2 43 -13.18 Q 43 -14.15 43.8 -14.7 Q 44.6 -15.25 45.2 -15.25 Z M 40.5 -8.65 L 40.5 -8.65 Q 40.75 -9.05 41.2 -9.05 Q 41.65 -9.05 42.1 -8.6 L 42.1 -8.6 Q 42.1 -8.4 41.45 -7.7 Q 40.8 -7 39.25 -4.58 Q 37.7 -2.15 37.7 -1.35 L 37.7 -1.35 Q 37.7 -0.85 38.45 -0.75 L 38.45 -0.75 Q 39.45 -0.75 41.55 -1.73 Q 43.65 -2.7 45.25 -3.7 L 45.25 -3.7 L 46.85 -4.7 Q 46.9 -4.6 46.9 -4.3 Q 46.9 -4 46.45 -3.8 L 46.45 -3.8 Q 39.7 0.8 37.05 0.8 L 37.05 0.8 Q 35.75 0.8 35.75 -0.5 Q 35.75 -1.8 37.17 -4.13 Q 38.6 -6.45 40.5 -8.65 Z M 46.19 -8.1 L 46.19 -8.1 L 44.94 -7.75 Q 44.84 -7.75 44.84 -7.9 L 44.84 -7.9 Q 44.84 -8.35 45.97 -9 Q 47.09 -9.65 47.79 -9.65 Q 48.49 -9.65 48.49 -6.65 L 48.49 -6.65 L 48.19 -1.8 Q 48.24 -1.85 51.54 -5.48 Q 54.84 -9.1 57.27 -11.05 Q 59.69 -13 61.39 -13 L 61.39 -13 Q 62.14 -12.95 62.14 -12.48 Q 62.14 -12 61.24 -11.25 Q 60.34 -10.5 59.87 -10.5 Q 59.39 -10.5 59.29 -10.7 Q 59.19 -10.9 58.82 -10.9 Q 58.44 -10.9 57.62 -10.38 Q 56.79 -9.85 55.57 -8.65 Q 54.34 -7.45 53.24 -6.28 Q 52.14 -5.1 50.22 -3.03 Q 48.29 -0.95 46.84 0.55 L 46.84 0.55 Q 46.44 0.9 46.17 0.9 Q 45.89 0.9 45.89 0.7 L 45.89 0.7 Q 46.64 -3.15 46.64 -6.9 L 46.64 -6.9 L 46.64 -7.85 Q 46.49 -8.1 46.19 -8.1 Z M 64.99 -15.25 L 64.99 -15.25 Q 65.74 -15.25 65.74 -14.5 Q 65.74 -13.75 65.04 -12.98 Q 64.34 -12.2 63.49 -12.2 L 63.49 -12.2 Q 62.79 -12.2 62.79 -13.18 Q 62.79 -14.15 63.59 -14.7 Q 64.39 -15.25 64.99 -15.25 Z M 60.29 -8.65 L 60.29 -8.65 Q 60.54 -9.05 60.99 -9.05 Q 61.44 -9.05 61.89 -8.6 L 61.89 -8.6 Q 61.89 -8.4 61.24 -7.7 Q 60.59 -7 59.04 -4.58 Q 57.49 -2.15 57.49 -1.35 L 57.49 -1.35 Q 57.49 -0.85 58.24 -0.75 L 58.24 -0.75 Q 59.24 -0.75 61.34 -1.73 Q 63.44 -2.7 65.04 -3.7 L 65.04 -3.7 L 66.64 -4.7 Q 66.69 -4.6 66.69 -4.3 Q 66.69 -4 66.24 -3.8 L 66.24 -3.8 Q 59.49 0.8 56.84 0.8 L 56.84 0.8 Q 55.54 0.8 55.54 -0.5 Q 55.54 -1.8 56.97 -4.13 Q 58.39 -6.45 60.29 -8.65 Z M 74.64 -5.95 L 74.64 -5.95 Q 74.34 -5.95 74.34 -6.3 L 74.34 -6.3 L 74.49 -6.65 Q 75.39 -7.5 75.39 -8.1 L 75.39 -8.1 Q 75.39 -8.85 74.59 -8.85 L 74.59 -8.85 Q 72.84 -8.85 69.86 -6.43 Q 66.89 -4 66.89 -2.1 L 66.89 -2.1 Q 66.89 -1.3 67.94 -1.3 Q 68.99 -1.3 70.36 -2.18 Q 71.74 -3.05 72.71 -3.93 Q 73.69 -4.8 73.79 -4.8 L 73.79 -4.8 Q 74.29 -4.75 74.29 -4.3 L 74.29 -4.3 Q 74.29 -4.1 73.51 -3 Q 72.74 -1.9 72.74 -1.25 L 72.74 -1.25 Q 72.74 -0.75 73.56 -0.75 Q 74.39 -0.75 76.49 -1.73 Q 78.59 -2.7 80.19 -3.7 L 80.19 -3.7 L 81.79 -4.7 Q 81.84 -4.6 81.84 -4.3 Q 81.84 -4 81.39 -3.8 L 81.39 -3.8 Q 74.64 0.8 71.99 0.8 L 71.99 0.8 Q 70.69 0.8 70.69 -0.5 L 70.69 -0.5 Q 70.69 -1.05 70.89 -1.65 L 70.89 -1.65 Q 70.54 -1.25 68.81 -0.43 Q 67.09 0.4 65.74 0.4 Q 64.39 0.4 64.39 -0.85 L 64.39 -0.85 Q 64.39 -3.8 68.49 -6.88 Q 72.59 -9.95 75.39 -9.95 L 75.39 -9.95 Q 77.04 -9.95 77.04 -8.55 L 77.04 -8.55 Q 77.04 -7.75 76.04 -6.85 Q 75.04 -5.95 74.64 -5.95 Z M 112.58 -34.4 L 112.58 -34.4 Q 128.58 -34.4 129.28 -34.5 Q 129.98 -34.6 130.46 -34.6 Q 130.93 -34.6 130.93 -34.4 Q 130.93 -34.2 130.41 -33.77 Q 129.88 -33.35 128.61 -32.93 Q 127.33 -32.5 125.73 -32.5 L 125.73 -32.5 L 110.98 -32.55 Q 104.53 -32.45 98.66 -30.8 Q 92.78 -29.15 89.03 -26.85 Q 85.28 -24.55 83.08 -22.15 Q 80.88 -19.75 80.88 -18.05 L 80.88 -18.05 Q 80.88 -16 83.93 -16 Q 86.98 -16 91.86 -18.63 Q 96.73 -21.25 100.13 -24.9 L 100.13 -24.9 Q 100.68 -25.45 100.88 -25.45 L 100.88 -25.45 Q 100.98 -25.45 100.98 -25.3 Q 100.98 -25.15 100.93 -25.05 L 100.93 -25.05 Q 99.48 -21.65 94.08 -17.88 Q 88.68 -14.1 83.73 -14.1 Q 78.78 -14.1 78.78 -16.95 L 78.78 -16.95 Q 78.78 -19.1 81.58 -22.05 Q 84.38 -25 88.83 -27.78 Q 93.28 -30.55 99.71 -32.48 Q 106.13 -34.4 112.58 -34.4 Z M 110.08 -30.95 L 110.33 -30.75 Q 110.33 -30.6 106.83 -24.1 L 106.83 -24.1 Q 97.28 -6.35 93.73 0.4 L 93.73 0.4 Q 93.43 1.05 92.63 1.4 Q 91.83 1.75 91.41 1.75 Q 90.98 1.75 90.98 1.53 Q 90.98 1.3 95.23 -6.5 Q 99.48 -14.3 103.71 -22.03 Q 107.93 -29.75 107.83 -29.8 L 107.83 -29.8 Q 108.13 -30.3 108.83 -30.55 L 108.83 -30.55 L 110.08 -30.95 Z M 103.13 -0.65 L 103.13 -0.65 Q 103.58 -0.65 108.16 -4.63 Q 112.73 -8.6 113.53 -8.6 Q 114.33 -8.6 114.33 -7.9 L 114.33 -7.9 Q 114.33 -7.35 113.33 -6.2 Q 112.33 -5.05 111.36 -3.7 Q 110.38 -2.35 110.38 -1.3 L 110.38 -1.3 Q 110.38 -0.75 111.21 -0.75 Q 112.03 -0.75 114.13 -1.73 Q 116.23 -2.7 117.83 -3.7 L 117.83 -3.7 L 119.43 -4.7 Q 119.48 -4.6 119.48 -4.3 Q 119.48 -4 119.03 -3.8 L 119.03 -3.8 Q 112.28 0.8 109.63 0.8 L 109.63 0.8 Q 108.33 0.8 108.33 -0.6 L 108.33 -0.6 Q 108.33 -1.55 109.03 -2.9 Q 109.73 -4.25 110.43 -5.15 L 110.43 -5.15 L 111.08 -6.05 Q 108.83 -4.35 106.43 -2.23 Q 104.03 -0.1 102.78 0.98 Q 101.53 2.05 101.03 2.05 Q 100.53 2.05 100.53 1.33 Q 100.53 0.6 102.88 -3.7 Q 105.23 -8 108.31 -12.98 Q 111.38 -17.95 114.76 -22 Q 118.13 -26.05 119.88 -26.05 L 119.88 -26.05 Q 120.63 -26.05 120.93 -25.35 L 120.93 -25.35 Q 121.08 -25.1 121.08 -24.75 L 121.08 -24.75 Q 121.08 -21.3 110.73 -11.5 L 110.73 -11.5 Q 108.78 -9.6 106.93 -8 L 106.93 -8 Q 103.13 -1.6 103.13 -0.65 Z M 119.43 -24.2 L 119.43 -24.2 Q 119.43 -24.7 119.18 -24.7 L 119.18 -24.7 Q 118.18 -24.7 114.98 -20.3 Q 111.78 -15.9 108.18 -10.05 L 108.18 -10.05 Q 119.43 -20.3 119.43 -24.2 Z M 129.03 -3.5 L 129.03 -3.5 Q 127.48 -2.55 125.43 -2.55 L 125.43 -2.55 L 124.83 -2.55 Q 123.48 -1 121.95 -0.03 Q 120.43 0.95 119.33 0.95 L 119.33 0.95 Q 117.78 0.95 117.78 -1.05 Q 117.78 -3.05 119.93 -5.7 L 119.93 -5.7 Q 119.73 -6.25 119.73 -7.05 L 119.73 -7.05 Q 119.73 -8.8 121.25 -10.08 Q 122.78 -11.35 124.23 -11.35 L 124.23 -11.35 Q 127.28 -11.35 127.28 -8.05 L 127.28 -8.05 Q 127.28 -5.85 125.38 -3.25 L 125.38 -3.25 L 125.98 -3.25 Q 127.58 -3.25 128.73 -4 L 128.73 -4 Q 128.88 -4.15 129.13 -4.15 Q 129.38 -4.15 129.38 -3.98 Q 129.38 -3.8 129.03 -3.5 Z M 124.23 -9.25 L 124.23 -9.25 Q 124.48 -9.35 124.63 -9.35 Q 124.78 -9.35 124.78 -9.13 Q 124.78 -8.9 124.23 -8.5 L 124.23 -8.5 Q 122.23 -6.95 121.23 -5.7 L 121.23 -5.7 Q 122.33 -3.95 124.58 -3.4 L 124.58 -3.4 Q 126.53 -5.7 126.53 -7.7 L 126.53 -7.7 Q 126.53 -8.85 125.78 -9.45 Q 125.03 -10.05 123.85 -10.05 Q 122.68 -10.05 121.68 -9.38 Q 120.68 -8.7 120.68 -7.93 Q 120.68 -7.15 120.83 -6.7 L 120.83 -6.7 Q 122.38 -8.3 124.23 -9.25 Z M 120.53 -4.6 L 120.53 -4.6 Q 119.73 -3.25 119.73 -1.6 L 119.73 -1.6 Q 119.73 -0.7 120.53 -0.7 L 120.53 -0.7 Q 121.88 -0.7 123.88 -2.7 L 123.88 -2.7 Q 121.63 -3.1 120.53 -4.6 Z M 129.98 -4.15 L 129.98 -4.15 L 128.73 -3.35 Q 128.53 -3.25 128.35 -3.25 Q 128.18 -3.25 128.18 -3.45 Q 128.18 -3.65 128.33 -3.8 L 128.33 -3.8 Q 128.73 -4 130.85 -5.63 Q 132.98 -7.25 133.6 -7.25 Q 134.23 -7.25 134.23 -6.53 Q 134.23 -5.8 132.7 -3.55 Q 131.18 -1.3 131.18 -1.13 Q 131.18 -0.95 131.28 -0.95 L 131.28 -0.95 Q 131.73 -0.95 136.48 -4.9 Q 141.23 -8.85 141.63 -8.85 L 141.63 -8.85 Q 142.38 -8.85 142.38 -8.15 L 142.38 -8.15 Q 142.38 -7.7 140.65 -5.08 Q 138.93 -2.45 138.38 -1.5 L 138.38 -1.5 Q 138.43 -1.45 138.6 -1.45 Q 138.78 -1.45 140.63 -2.78 Q 142.48 -4.1 144.48 -5.6 Q 146.48 -7.1 146.83 -7.33 Q 147.18 -7.55 147.48 -7.55 L 147.48 -7.55 Q 148.08 -7.5 148.08 -6.85 L 148.08 -6.85 Q 148.08 -6.6 146.35 -4.23 Q 144.63 -1.85 144.63 -1.2 L 144.63 -1.2 Q 144.63 -0.75 145.7 -0.75 Q 146.78 -0.75 148.88 -1.73 Q 150.98 -2.7 152.58 -3.7 L 152.58 -3.7 L 154.18 -4.7 Q 154.23 -4.6 154.23 -4.3 Q 154.23 -4 153.78 -3.8 L 153.78 -3.8 Q 147.03 0.8 144.38 0.8 L 144.38 0.8 Q 142.83 0.8 142.83 -0.4 L 142.83 -0.4 Q 142.83 -1.55 143.5 -2.6 Q 144.18 -3.65 144.68 -4.38 Q 145.18 -5.1 145.18 -5.15 L 145.18 -5.15 Q 138.48 -0.25 137.45 0.23 Q 136.43 0.7 135.98 0.7 Q 135.53 0.7 135.53 -0.3 L 135.53 -0.3 L 139.13 -5.9 Q 138.53 -5.65 135.23 -3.15 Q 131.93 -0.65 130.08 1 L 130.08 1 Q 129.38 1.85 128.73 1.85 L 128.73 1.85 Q 128.08 1.7 128.08 1 L 128.08 1 Q 128.08 0.8 129.9 -1.95 Q 131.73 -4.7 131.73 -4.93 Q 131.73 -5.15 131.6 -5.15 Q 131.48 -5.15 131.18 -4.98 Q 130.88 -4.8 130.48 -4.5 Q 130.08 -4.2 129.98 -4.15 Z M 162.22 -5.95 L 162.22 -5.95 Q 161.92 -5.95 161.92 -6.3 L 161.92 -6.3 L 162.07 -6.65 Q 162.97 -7.5 162.97 -8.1 L 162.97 -8.1 Q 162.97 -8.85 162.17 -8.85 L 162.17 -8.85 Q 160.42 -8.85 157.45 -6.43 Q 154.47 -4 154.47 -2.1 L 154.47 -2.1 Q 154.47 -1.3 155.52 -1.3 Q 156.57 -1.3 157.95 -2.18 Q 159.32 -3.05 160.3 -3.93 Q 161.27 -4.8 161.37 -4.8 L 161.37 -4.8 Q 161.87 -4.75 161.87 -4.3 L 161.87 -4.3 Q 161.87 -4.1 161.1 -3 Q 160.32 -1.9 160.32 -1.25 L 160.32 -1.25 Q 160.32 -0.75 161.15 -0.75 Q 161.97 -0.75 164.07 -1.73 Q 166.17 -2.7 167.77 -3.7 L 167.77 -3.7 L 169.37 -4.7 Q 169.42 -4.6 169.42 -4.3 Q 169.42 -4 168.97 -3.8 L 168.97 -3.8 Q 162.22 0.8 159.57 0.8 L 159.57 0.8 Q 158.27 0.8 158.27 -0.5 L 158.27 -0.5 Q 158.27 -1.05 158.47 -1.65 L 158.47 -1.65 Q 158.12 -1.25 156.4 -0.43 Q 154.67 0.4 153.32 0.4 Q 151.97 0.4 151.97 -0.85 L 151.97 -0.85 Q 151.97 -3.8 156.07 -6.88 Q 160.17 -9.95 162.97 -9.95 L 162.97 -9.95 Q 164.62 -9.95 164.62 -8.55 L 164.62 -8.55 Q 164.62 -7.75 163.62 -6.85 Q 162.62 -5.95 162.22 -5.95 Z M 170.97 -5.45 L 170.97 -5.45 Q 168.57 -3.25 167.92 -3.25 L 167.92 -3.25 Q 167.72 -3.25 167.72 -3.45 Q 167.72 -3.65 167.87 -3.8 L 167.87 -3.8 Q 169.07 -4.45 170.67 -5.9 L 170.67 -5.9 Q 170.42 -6.5 170.42 -7.2 L 170.42 -7.2 Q 170.42 -8.9 172.17 -10.45 Q 173.92 -12 175.12 -12 L 175.12 -12 Q 175.77 -12 175.77 -11.38 Q 175.77 -10.75 173.77 -8.35 L 173.77 -8.35 Q 173.57 -8.1 173.32 -7.85 Q 173.07 -7.6 172.8 -7.28 Q 172.52 -6.95 172.37 -6.8 L 172.37 -6.8 Q 172.62 -6.55 173.27 -5.93 Q 173.92 -5.3 174.32 -4.9 L 174.32 -4.9 Q 175.42 -3.8 175.42 -2.15 Q 175.42 -0.5 173.37 0.73 Q 171.32 1.95 169.1 1.95 Q 166.87 1.95 166.87 0.63 Q 166.87 -0.7 168.92 -1.8 Q 170.97 -2.9 173.22 -3.3 L 173.22 -3.3 Q 172.92 -3.7 172.1 -4.35 Q 171.27 -5 170.97 -5.45 Z M 173.57 -2.7 Q 171.87 -2.5 170.37 -1.78 Q 168.87 -1.05 168.87 -0.08 Q 168.87 0.9 170.25 0.9 Q 171.62 0.9 172.7 0.25 Q 173.77 -0.4 173.77 -1.2 Q 173.77 -2 173.57 -2.7 L 173.57 -2.7 Z M 172.02 -7.2 L 172.02 -7.2 L 173.32 -8.6 Q 174.62 -10.15 174.62 -10.48 Q 174.62 -10.8 174.32 -10.8 L 174.32 -10.8 Q 173.47 -10.8 172.57 -9.98 Q 171.67 -9.15 171.67 -8.38 Q 171.67 -7.6 172.02 -7.2 Z" stroke-linecap="round"/>
</g>
		<g transform="matrix(1.6376 0 0 1.6376 -275.9014 -39.4122)" id="icon-0">
<path style="stroke: none; stroke-width: 1; stroke-dasharray: none; stroke-linecap: butt; stroke-dashoffset: 0; stroke-linejoin: miter; stroke-miterlimit: 4; is-custom-font: none; font-file-url: none; fill: rgb(66,111,92); fill-rule: nonzero; opacity: 1;" transform=" translate(-32.2603, -39.7501)" d="M 31.646 40.211 c 0.44 0.041 0.866 0.081 1.272 0.126 a 14.183 14.183 0 0 0 1.419 0.1 c 0.612 0 0.745 -0.108 0.839 -0.255 a 0.464 0.464 0 0 0 0 -0.443 c -0.265 -0.437 -1.944 -0.724 -2.576 -0.669 c -1.071 0.111 -2.032 0.17 -2.94 0.18 a 0.375 0.375 0 0 0 -0.044 0.747 C 30.3 40.084 30.987 40.149 31.646 40.211 Z" stroke-linecap="round"/>
</g>
		<g transform="matrix(1.6376 0 0 1.6376 -275.0597 -4.5941)" id="icon-0">
<path style="stroke: none; stroke-width: 1; stroke-dasharray: none; stroke-linecap: butt; stroke-dashoffset: 0; stroke-linejoin: miter; stroke-miterlimit: 4; is-custom-font: none; font-file-url: none; fill: rgb(66,111,92); fill-rule: nonzero; opacity: 1;" transform=" translate(-32.7747, -61.0115)" d="M 43.72 60.741 c 0.029 0.39 0.084 1.117 0.976 1.128 a 6.4 6.4 0 0 0 4.879 -1.561 a 15.027 15.027 0 0 1 2.576 -1.084 a 0.357 0.357 0 0 0 0.36 -0.242 v 0 a 0.631 0.631 0 0 1 0.567 -0.426 a 0.374 0.374 0 0 0 0.2 -0.665 a 14.734 14.734 0 0 1 -0.553 -1.744 a 12.912 12.912 0 0 1 -0.375 -2.063 l -0.015 -0.158 a 5.766 5.766 0 0 1 0.033 -2.043 a 2.034 2.034 0 0 1 0.153 -0.3 a 1.309 1.309 0 0 0 0.19 -1.338 a 0.546 0.546 0 0 0 -0.508 -0.3 c -0.42 0.026 -0.656 0.52 -0.946 1.213 c -0.04 0.1 -0.072 0.176 -0.1 0.229 c -0.272 0.52 -0.553 1.058 -0.788 1.623 a 7.855 7.855 0 0 1 -2 3.295 c -0.225 0.2 -0.434 0.39 -0.639 0.577 a 5.356 5.356 0 0 1 -3.295 1.807 a 8.651 8.651 0 0 1 -3.3 -0.364 c -0.386 -0.1 -0.789 -0.2 -1.237 -0.289 a 0.459 0.459 0 0 1 -0.416 -0.409 a 0.379 0.379 0 0 0 -0.395 -0.325 a 4.422 4.422 0 0 1 -1.63 -0.2 a 12.378 12.378 0 0 1 -4.365 -1.932 a 23.038 23.038 0 0 1 -1.632 -1.631 a 21.244 21.244 0 0 0 -1.8 -1.776 a 11.665 11.665 0 0 0 -2.106 -1.119 c -0.374 -0.173 -0.73 -0.336 -0.994 -0.472 a 0.557 0.557 0 0 1 -0.3 -0.457 a 0.377 0.377 0 0 0 -0.243 -0.311 a 0.371 0.371 0 0 0 -0.388 0.079 a 6.421 6.421 0 0 0 -1.179 1.762 a 6.5 6.5 0 0 1 -0.886 1.413 a 4.72 4.72 0 0 1 -2.117 1.059 A 6.379 6.379 0 0 0 18.852 55 a 16.475 16.475 0 0 0 -3.9 5.47 a 5.31 5.31 0 0 1 -0.962 1.323 a 6.832 6.832 0 0 0 -1.358 1.99 c -0.607 1.554 -0.661 2.677 -0.173 3.536 a 3.682 3.682 0 0 0 2.821 1.566 c 1.939 0.33 2.249 -1.124 2.52 -2.407 c 0.069 -0.328 0.14 -0.668 0.239 -1 a 13.907 13.907 0 0 1 2.188 -4.526 a 13.846 13.846 0 0 1 1.06 -1.165 a 9.377 9.377 0 0 0 1.654 -2.012 a 0.47 0.47 0 0 1 0.543 -0.307 a 0.847 0.847 0 0 1 0.657 0.691 a 11.78 11.78 0 0 1 -0.539 5.993 a 11.45 11.45 0 0 0 -0.74 4.476 a 11.953 11.953 0 0 1 -0.442 3.523 a 0.376 0.376 0 0 0 0.053 0.337 a 0.372 0.372 0 0 0 0.3 0.155 l 0.743 0 A 5.15 5.15 0 0 0 28.1 68.662 a 17.052 17.052 0 0 0 0.209 -3.858 a 21.722 21.722 0 0 1 0.058 -2.8 l 0.065 -0.614 c 0.174 -1.723 0.356 -3.505 1.555 -4.716 a 0.714 0.714 0 0 1 0.475 -0.184 a 0.576 0.576 0 0 1 0.425 0.18 a 3.393 3.393 0 0 1 0.942 2.837 a 23.116 23.116 0 0 0 0.894 8.9 a 2.578 2.578 0 0 1 0.04 1.382 a 6.08 6.08 0 0 1 -0.43 1.089 c -0.116 0.237 -0.248 0.5 0 0.712 s 0.434 0.082 1.015 -0.349 l 0.484 -0.356 c 1.835 -1.324 2.787 -3.591 2.913 -6.928 a 0.691 0.691 0 0 1 0.657 -0.637 a 0.532 0.532 0 0 1 0.611 0.441 c 0.1 0.472 0.2 0.918 0.572 1.129 a 1.333 1.333 0 0 0 1.069 -0.013 A 4.522 4.522 0 0 0 42.075 62.2 a 3.578 3.578 0 0 0 0.14 -0.765 a 2.329 2.329 0 0 1 0.139 -0.693 a 1.407 1.407 0 0 1 0.891 -0.568 a 0.418 0.418 0 0 1 0.359 0.067 A 0.951 0.951 0 0 1 43.72 60.741 Z" stroke-linecap="round"/>
</g>
		<g transform="matrix(1.6376 0 0 1.6376 -180.8435 -43.7232)" id="icon-0">
<path style="stroke: none; stroke-width: 1; stroke-dasharray: none; stroke-linecap: butt; stroke-dashoffset: 0; stroke-linejoin: miter; stroke-miterlimit: 4; is-custom-font: none; font-file-url: none; fill: rgb(66,111,92); fill-rule: nonzero; opacity: 1;" transform=" translate(-90.3058, -37.1178)" d="M 85.976 40.55 a 18.162 18.162 0 0 1 3.88 1.067 a 0.382 0.382 0 0 0 0.142 0.028 a 0.468 0.468 0 0 0 0.183 -0.047 c 0.221 -0.065 0.25 -0.189 0.547 -1.456 c 0.123 -0.528 0.308 -1.325 0.38 -1.47 a 15.021 15.021 0 0 0 0.7 -1.493 a 9.13 9.13 0 0 1 1.1 -2.089 A 9.539 9.539 0 0 1 94.8 33.3 a 0.376 0.376 0 0 0 -0.166 -0.676 c -2.868 -0.41 -5.064 3.054 -6.4 5.171 a 1.021 1.021 0 0 0 -0.078 0.231 a 1.269 1.269 0 0 1 -0.339 0.669 a 2.832 2.832 0 0 1 -0.768 0.37 a 2.227 2.227 0 0 0 -1.351 0.944 a 0.374 0.374 0 0 0 0.273 0.54 Z" stroke-linecap="round"/>
</g>
		<g transform="matrix(1.6376 0 0 1.6376 -235.8279 65.0031)" id="icon-0">
<path style="stroke: none; stroke-width: 1; stroke-dasharray: none; stroke-linecap: butt; stroke-dashoffset: 0; stroke-linejoin: miter; stroke-miterlimit: 4; is-custom-font: none; font-file-url: none; fill: rgb(66,111,92); fill-rule: nonzero; opacity: 1;" transform=" translate(-56.7305, -103.5096)" d="M 60.194 102.374 a 0.38 0.38 0 0 0 -0.465 -0.331 a 15.372 15.372 0 0 0 -4.86 0.538 a 3.209 3.209 0 0 1 -1.33 0.16 a 0.375 0.375 0 0 0 -0.154 0.733 l 0.983 0.25 c 1.883 0.481 3.661 0.935 5.547 1.265 a 0.355 0.355 0 0 0 0.064 0.006 a 0.375 0.375 0 0 0 0.362 -0.477 l -0.043 -0.147 C 60.3 103.66 60.248 102.991 60.194 102.374 Z" stroke-linecap="round"/>
</g>
		<g transform="matrix(1.6376 0 0 1.6376 -256.8678 -52.8488)" id="icon-0">
<path style="stroke: none; stroke-width: 1; stroke-dasharray: none; stroke-linecap: butt; stroke-dashoffset: 0; stroke-linejoin: miter; stroke-miterlimit: 4; is-custom-font: none; font-file-url: none; fill: rgb(66,111,92); fill-rule: nonzero; opacity: 1;" transform=" translate(-43.8833, -31.546)" d="M 23.025 36.45 c 3.256 1.411 6.343 1.366 9.621 1.325 c 1.03 -0.017 3.457 -0.052 4.224 0.938 a 1.385 1.385 0 0 1 0.152 1.277 c -0.565 2.067 -3.183 1.827 -5.817 1.4 c -0.25 -0.04 -0.482 -0.078 -0.694 -0.108 l -0.926 -0.123 a 20.474 20.474 0 0 1 -5.466 -1.244 a 2.055 2.055 0 0 1 -0.43 -0.271 a 0.38 0.38 0 0 0 -0.45 -0.009 a 0.376 0.376 0 0 0 -0.135 0.429 a 15.053 15.053 0 0 0 1.124 2.326 a 16.116 16.116 0 0 1 1.159 2.4 c 1.147 3.245 3.337 3.512 6.108 3.85 l 0.285 0.033 l 0.057 0.024 a 0.372 0.372 0 0 0 0.354 -0.061 c 0.474 -0.375 1.022 -0.884 1.6 -1.425 c 2.174 -2.024 5.149 -4.8 7.25 -3.172 a 0.7 0.7 0 0 1 0.128 0.63 c -0.3 1.479 -1.341 1.907 -2.542 2.4 a 5.938 5.938 0 0 0 -2.2 1.309 a 5.213 5.213 0 0 1 -3.8 1.608 a 0.384 0.384 0 0 0 -0.186 0.061 a 0.481 0.481 0 0 1 -0.575 0.012 A 0.376 0.376 0 0 0 31.663 50 c -0.347 0 -0.7 -0.012 -1.065 -0.023 a 0.381 0.381 0 0 0 -0.361 0.237 a 0.376 0.376 0 0 0 0.1 0.419 c 0.042 0.037 0.087 0.072 0.131 0.107 a 1.348 1.348 0 0 1 0.137 0.117 c 0.349 0.345 0.684 0.729 1.023 1.117 a 9.179 9.179 0 0 0 3.054 2.6 c 0.222 0.1 0.446 0.2 0.671 0.3 c 1.521 0.69 3.1 1.4 4.88 0.775 c 1.641 -0.585 2.685 -2.368 3.523 -3.8 l 0.169 -0.287 a 0.644 0.644 0 0 1 0.85 -0.234 a 0.565 0.565 0 0 1 0.343 0.713 a 8.32 8.32 0 0 1 -3.186 4.566 a 0.375 0.375 0 0 0 0.11 0.675 a 5.009 5.009 0 0 0 1.313 0.2 a 3.812 3.812 0 0 0 0.445 -0.026 c 1.741 -0.179 2.789 -1.217 3.9 -2.315 l 0.1 -0.1 a 7.54 7.54 0 0 0 1.557 -2.873 c 0.1 -0.284 0.207 -0.565 0.32 -0.842 a 4.96 4.96 0 0 1 0.61 -1.083 a 3.581 3.581 0 0 0 0.786 -2.3 a 0.816 0.816 0 0 1 0.035 -0.151 c 0.007 -0.028 0.033 -0.134 0.035 -0.164 c 0.061 -1.5 -0.549 -3.328 -1.867 -5.595 a 0.365 0.365 0 0 0 -0.375 -0.183 a 0.373 0.373 0 0 0 -0.311 0.276 a 3.056 3.056 0 0 1 -0.225 0.6 a 4.207 4.207 0 0 0 -0.279 0.919 a 4.545 4.545 0 0 1 -0.214 0.761 a 6.685 6.685 0 0 0 -0.244 0.684 c -0.178 0.564 -0.362 1.148 -0.811 1.381 a 6.422 6.422 0 0 0 -1.129 0.791 c -0.157 0.127 -0.313 0.255 -0.474 0.374 a 0.473 0.473 0 0 1 -0.723 -0.121 a 0.734 0.734 0 0 1 0.127 -1.039 a 6.547 6.547 0 0 0 0.514 -0.42 a 3.652 3.652 0 0 1 0.724 -0.54 c 0.4 -0.207 0.623 -0.815 0.889 -1.651 a 5.5 5.5 0 0 1 0.191 -0.543 a 2.949 2.949 0 0 0 0.17 -0.664 a 2.16 2.16 0 0 1 0.173 -0.634 a 3.519 3.519 0 0 0 0.275 -1.317 a 3.99 3.99 0 0 1 0.133 -0.88 a 0.376 0.376 0 0 0 -0.589 -0.411 c -0.174 0.137 -0.344 0.278 -0.514 0.418 a 8.6 8.6 0 0 1 -1.332 0.969 a 3.685 3.685 0 0 1 -1.117 0.325 a 4.577 4.577 0 0 0 -1.292 0.374 a 0.607 0.607 0 0 1 -0.641 -0.014 a 0.762 0.762 0 0 1 -0.352 -0.641 a 0.515 0.515 0 0 1 0.323 -0.442 a 4.687 4.687 0 0 1 1.3 -0.475 c 0.1 -0.023 0.206 -0.041 0.318 -0.061 a 2.9 2.9 0 0 0 1.088 -0.344 a 15.37 15.37 0 0 0 1.282 -0.978 l 0.245 -0.2 a 0.374 0.374 0 0 0 0.073 -0.5 l -0.126 -0.179 c -0.058 -0.08 -0.114 -0.158 -0.167 -0.239 c -0.149 -0.219 -0.293 -0.443 -0.439 -0.668 l -0.263 -0.405 a 0.374 0.374 0 0 0 -0.467 -0.136 c -2.4 1.085 -4.3 1.4 -5.8 0.969 c -1.132 -0.329 -2.3 -0.721 -3.424 -1.1 a 50.584 50.584 0 0 0 -5.969 -1.744 a 0.489 0.489 0 0 1 -0.407 -0.32 a 0.772 0.772 0 0 1 0.173 -0.716 a 0.634 0.634 0 0 1 0.63 -0.2 a 32.072 32.072 0 0 1 4.132 1.251 c 1.14 0.4 2.319 0.818 3.51 1.116 a 9.806 9.806 0 0 0 6.382 -0.343 a 0.376 0.376 0 0 0 0.189 -0.534 c -0.888 -1.572 -1.709 -3.2 -2.5 -4.781 l -0.133 -0.263 l -0.052 -0.1 a 0.958 0.958 0 0 1 -0.051 -0.1 a 0.358 0.358 0 0 0 -0.368 -0.23 c -1.583 0.094 -2.815 0.136 -4 0.136 a 8.656 8.656 0 0 1 -2.284 -0.387 c -0.261 -0.068 -0.527 -0.139 -0.806 -0.2 a 0.562 0.562 0 0 1 -0.424 -0.721 a 0.649 0.649 0 0 1 0.785 -0.524 a 14.9 14.9 0 0 0 3.649 0.543 c 0.665 0 1.33 -0.034 1.983 -0.069 a 0.374 0.374 0 0 0 0.3 -0.574 c -0.291 -0.462 -0.589 -0.919 -0.886 -1.375 a 25.852 25.852 0 0 1 -2.87 -5.253 a 18.8 18.8 0 0 1 -0.666 -3.179 c -0.368 -2.33 -0.749 -4.738 -1.873 -5.76 a 0.556 0.556 0 0 1 -0.019 -0.829 a 0.656 0.656 0 0 1 0.954 -0.071 c 1.3 1.181 1.545 3.177 1.785 5.107 a 15.465 15.465 0 0 0 0.648 3.291 a 46.8 46.8 0 0 0 4.1 8.055 a 0.376 0.376 0 0 0 0.529 0.117 a 4.014 4.014 0 0 0 1.374 -2.295 l 0.076 -0.229 a 3.655 3.655 0 0 1 0.3 -0.6 a 5.729 5.729 0 0 0 0.287 -0.544 a 3.616 3.616 0 0 0 -0.008 -1.386 c 0 -0.376 0.41 -0.477 0.652 -0.477 s 0.651 0.1 0.651 0.477 c 0 0.241 0.005 0.45 0.01 0.637 a 2.556 2.556 0 0 1 -0.228 1.472 a 19.5 19.5 0 0 0 -0.905 2.072 a 3.746 3.746 0 0 1 -1.548 1.958 a 0.37 0.37 0 0 0 -0.167 0.234 a 0.376 0.376 0 0 0 0.047 0.284 l 0.464 0.74 c 0.228 0.366 0.454 0.73 0.684 1.088 l 0.477 0.754 c 0.437 0.689 0.879 1.387 1.329 2.086 a 0.356 0.356 0 0 0 0.323 0.172 a 0.373 0.373 0 0 0 0.315 -0.186 a 2.3 2.3 0 0 1 0.351 -0.457 c 0.123 -0.124 0.177 -0.171 0.184 -0.178 s 0.118 -0.128 0.127 -0.137 a 12.332 12.332 0 0 1 2.135 -2.182 a 0.462 0.462 0 0 1 0.373 -0.069 a 0.75 0.75 0 0 1 0.474 0.322 a 0.677 0.677 0 0 1 -0.264 0.9 a 3.414 3.414 0 0 0 -0.583 0.6 c -0.081 0.1 -0.161 0.2 -0.242 0.28 l -0.176 0.175 a 8.483 8.483 0 0 0 -0.712 0.761 c -0.074 0.091 -0.149 0.174 -0.222 0.254 a 2.876 2.876 0 0 0 -0.5 0.672 a 0.871 0.871 0 0 1 -0.248 0.243 c -0.052 0.041 -0.1 0.081 -0.154 0.124 a 0.375 0.375 0 0 0 -0.073 0.48 c 0.452 0.734 0.893 1.469 1.322 2.215 a 0.372 0.372 0 0 0 0.41 0.178 a 11.472 11.472 0 0 0 4.148 -1.951 A 14.264 14.264 0 0 1 54.341 34.9 A 13.221 13.221 0 0 0 56.2 33.72 a 0.679 0.679 0 0 1 0.7 -0.108 a 0.761 0.761 0 0 1 0.483 0.537 a 0.445 0.445 0 0 1 -0.2 0.427 a 10.558 10.558 0 0 1 -1.52 0.959 c -0.336 0.186 -0.673 0.374 -1 0.584 a 11.277 11.277 0 0 0 -0.962 0.717 a 7.6 7.6 0 0 1 -1.229 0.865 a 18.1 18.1 0 0 1 -3.1 1.245 a 0.38 0.38 0 0 0 -0.241 0.214 a 0.375 0.375 0 0 0 0.015 0.322 l 0.172 0.323 c 0.148 0.275 0.3 0.551 0.433 0.834 a 0.379 0.379 0 0 0 0.21 0.189 a 15.045 15.045 0 0 0 1.823 0.5 a 20.681 20.681 0 0 0 3.772 0.4 a 0.563 0.563 0 0 1 0.524 0.288 a 0.762 0.762 0 0 1 0 0.734 a 0.563 0.563 0 0 1 -0.513 0.259 a 17.791 17.791 0 0 1 -4.068 -0.443 a 0.375 0.375 0 0 0 -0.417 0.545 A 8.776 8.776 0 0 1 52.4 47.043 a 0.375 0.375 0 0 0 0.44 0.35 c 0.937 -0.167 1.974 -0.284 3.072 -0.409 c 4.636 -0.525 10.4 -1.178 11.2 -6.463 c 0.2 -1.3 0.115 -1.908 -0.292 -2.186 c -0.478 -0.326 -1.088 0.027 -1.859 0.472 a 6.393 6.393 0 0 1 -2.14 0.911 a 7.711 7.711 0 0 1 -3.938 -0.334 c -0.767 -0.344 -1.2 -0.715 -1.2 -1.043 c -0.023 -0.727 1.7 -1.635 2.63 -2.124 c 0.222 -0.116 0.424 -0.223 0.593 -0.319 c 3.624 -2.076 5.838 -4.5 4.858 -9.568 c -0.056 -0.282 -0.112 -0.615 -0.173 -0.98 a 16.119 16.119 0 0 0 -1.179 -4.42 a 0.372 0.372 0 0 0 -0.315 -0.2 a 0.36 0.36 0 0 0 -0.333 0.172 c -0.483 0.751 -0.9 1.568 -1.3 2.358 a 15.236 15.236 0 0 1 -2.749 4.169 c -0.229 0.222 -0.466 0.461 -0.71 0.707 c -1.615 1.633 -3.439 3.487 -5.617 2.942 a 0.64 0.64 0 0 1 -0.436 -0.441 a 3.156 3.156 0 0 1 0.991 -3.277 c 3.152 -2.665 4.766 -5.582 4.8 -8.67 a 6.688 6.688 0 0 0 -1.649 -4.217 l -0.315 -0.452 c -0.039 -0.054 -0.183 -0.264 -0.383 -0.555 c -2.124 -3.087 -2.124 -3.087 -2.374 -3.087 a 0.378 0.378 0 0 0 -0.273 0.117 c -1.767 1.863 -1.286 4.7 -0.861 7.209 a 19.659 19.659 0 0 1 0.351 2.836 a 6.351 6.351 0 0 1 -1.8 4.853 a 3.085 3.085 0 0 1 -2.733 0.575 c -0.725 -0.152 -0.923 -0.748 -1.032 -1.791 a 6.164 6.164 0 0 1 0.908 -3.194 a 8.13 8.13 0 0 0 1.08 -3.58 c 0 -0.245 0.038 -0.632 0.084 -1.1 c 0.191 -1.979 0.48 -4.968 -0.754 -6.292 a 2.059 2.059 0 0 0 -1.6 -0.639 c -0.264 0.008 -0.581 -0.008 -0.915 -0.023 c -1.206 -0.057 -2.451 -0.113 -2.892 0.6 a 1.4 1.4 0 0 0 0.137 1.434 a 5.913 5.913 0 0 1 0.683 1.745 c 0.651 2.452 -1.064 6.451 -3.71 7.18 c -1.023 0.285 -1.335 -0.079 -1.44 -0.2 c -0.841 -0.966 -0.064 -3.993 0.387 -5.036 A 8.543 8.543 0 0 0 39.4 8.012 a 3.888 3.888 0 0 0 -3.107 -1.947 c -0.4 -0.03 -0.9 -0.1 -1.439 -0.179 a 23.061 23.061 0 0 0 -2.68 -0.276 h -0.007 a 0.376 0.376 0 0 0 -0.374 0.4 C 31.883 7.563 30.364 8.7 28.9 9.8 a 12.157 12.157 0 0 0 -2 1.721 a 1.416 1.416 0 0 0 -0.274 1.221 c 0.342 1.883 3.424 4.549 4.385 5.091 a 7.94 7.94 0 0 1 3.535 3.63 c 0.357 0.716 0.367 1.264 0.027 1.626 c -0.759 0.812 -2.966 0.735 -4.03 0.289 c -2.22 -0.93 -4.163 -3.336 -5.33 -6.6 a 0.376 0.376 0 0 0 -0.662 -0.087 c -0.258 0.373 -0.524 0.745 -0.789 1.118 c -0.569 0.8 -1.158 1.626 -1.683 2.471 a 2.449 2.449 0 0 0 -0.368 2.262 c 0.62 1.531 3.149 2.158 5 2.615 c 0.333 0.083 0.644 0.159 0.914 0.235 a 3.053 3.053 0 0 1 2.037 1.463 a 1.747 1.747 0 0 1 -0.086 1.542 a 1.588 1.588 0 0 1 -0.975 0.925 c -1.113 0.319 -2.748 -0.7 -3.943 -1.453 c -0.252 -0.159 -0.486 -0.306 -0.693 -0.427 a 8.9 8.9 0 0 1 -2.226 -1.948 a 0.353 0.353 0 0 0 0.014 -0.431 a 0.393 0.393 0 0 0 -0.5 -0.12 l -0.006 -0.008 q -0.021 0.014 -0.042 0.03 a 0.375 0.375 0 0 0 -0.27 0.328 a 4.129 4.129 0 0 1 -0.085 0.539 C 20.393 28.12 20.057 35.178 23.025 36.45 Z" stroke-linecap="round"/>
</g>
		<g transform="matrix(1.6376 0 0 1.6376 -260.18 -80.7146)" id="icon-0">
<path style="stroke: none; stroke-width: 1; stroke-dasharray: none; stroke-linecap: butt; stroke-dashoffset: 0; stroke-linejoin: miter; stroke-miterlimit: 4; is-custom-font: none; font-file-url: none; fill: rgb(66,111,92); fill-rule: nonzero; opacity: 1;" transform=" translate(-41.8602, -14.5296)" d="M 41.17 17.445 a 0.7 0.7 0 0 0 0.259 -0.052 a 4.093 4.093 0 0 0 0.995 -5.619 a 0.378 0.378 0 0 0 -0.41 -0.146 a 0.374 0.374 0 0 0 -0.272 0.34 a 8.167 8.167 0 0 1 -0.551 2.689 c -0.794 1.874 -0.653 2.38 -0.411 2.627 A 0.537 0.537 0 0 0 41.17 17.445 Z" stroke-linecap="round"/>
</g>
		<g transform="matrix(1.6376 0 0 1.6376 -280.6145 -73.6626)" id="icon-0">
<path style="stroke: none; stroke-width: 1; stroke-dasharray: none; stroke-linecap: butt; stroke-dashoffset: 0; stroke-linejoin: miter; stroke-miterlimit: 4; is-custom-font: none; font-file-url: none; fill: rgb(66,111,92); fill-rule: nonzero; opacity: 1;" transform=" translate(-29.3822, -18.8358)" d="M 27.9 18.853 A 5.26 5.26 0 0 0 30.774 22.1 a 0.378 0.378 0 0 0 0.164 0.037 a 0.371 0.371 0 0 0 0.223 -0.074 c 0.874 -0.651 1.244 -1.242 1.13 -1.8 c -0.121 -0.6 -0.749 -1.028 -1.973 -1.339 a 16.183 16.183 0 0 1 -2.226 -2.193 c -0.328 -0.367 -0.654 -0.732 -0.993 -1.081 a 0.375 0.375 0 0 0 -0.611 0.417 c 0.216 0.47 0.458 0.927 0.7 1.383 C 27.442 17.923 27.7 18.4 27.9 18.853 Z" stroke-linecap="round"/>
</g>
		<g transform="matrix(1.6376 0 0 1.6376 -213.7105 -6.798)" id="icon-0">
<path style="stroke: none; stroke-width: 1; stroke-dasharray: none; stroke-linecap: butt; stroke-dashoffset: 0; stroke-linejoin: miter; stroke-miterlimit: 4; is-custom-font: none; font-file-url: none; fill: rgb(66,111,92); fill-rule: nonzero; opacity: 1;" transform=" translate(-70.2364, -59.6658)" d="M 86.663 67.255 a 16.365 16.365 0 0 1 -3.8 -2.535 a 3.021 3.021 0 0 1 -0.892 -1.252 a 6.976 6.976 0 0 1 -0.255 -1.552 a 11.118 11.118 0 0 1 -0.012 -2 a 13.384 13.384 0 0 1 0.361 -1.932 c 0.066 -0.276 0.131 -0.551 0.19 -0.832 a 5.946 5.946 0 0 1 0.313 -0.987 c 0.064 -0.169 0.128 -0.338 0.184 -0.5 c 0.105 -0.3 0.187 -0.621 0.273 -0.959 c 0.015 -0.075 0.025 -0.181 0.036 -0.3 a 2.092 2.092 0 0 1 0.057 -0.4 a 0.374 0.374 0 0 0 -0.649 -0.363 c -1.269 1.734 -1.657 3.719 -2.109 6.016 a 8.691 8.691 0 0 0 -0.118 1.3 c -0.039 0.953 -0.072 1.776 -0.751 2.3 c -0.115 0.088 -0.512 0.362 -0.786 0.155 a 8.779 8.779 0 0 1 -1.772 -1.953 a 8.69 8.69 0 0 0 -2.258 -2.342 l -0.219 -0.135 c -0.587 -0.36 -1.316 -0.808 -1.51 -1.4 a 9.977 9.977 0 0 1 -0.367 -3.845 a 0.375 0.375 0 0 0 -0.713 -0.192 a 3.536 3.536 0 0 1 -1.826 2.1 a 0.647 0.647 0 0 1 -0.6 -0.155 c -0.25 -0.276 -0.5 -0.534 -0.753 -0.791 l -0.276 -0.284 a 0.375 0.375 0 0 0 -0.416 -0.085 l -0.133 0.052 a 0.374 0.374 0 0 0 -0.333 0.393 a 0.353 0.353 0 0 0 0.033 0.134 c -0.027 0.086 -0.071 0.207 -0.1 0.282 a 2.954 2.954 0 0 0 -0.1 0.289 l -0.037 0.171 a 5.637 5.637 0 0 1 -0.176 0.691 c -0.089 0.246 -0.183 0.488 -0.277 0.729 a 11.8 11.8 0 0 0 -0.636 1.974 a 0.477 0.477 0 0 1 -0.3 0.4 a 0.765 0.765 0 0 1 -0.711 -0.165 a 0.634 0.634 0 0 1 -0.211 -0.636 a 9.067 9.067 0 0 1 0.529 -1.669 c 0.076 -0.2 0.153 -0.395 0.228 -0.6 a 9.005 9.005 0 0 0 0.243 -0.872 a 8.152 8.152 0 0 1 0.219 -0.791 a 3 3 0 0 1 0.71 -1.174 a 0.368 0.368 0 0 0 0.12 -0.273 a 0.373 0.373 0 0 0 -0.118 -0.273 l -0.609 -0.574 c -0.6 -0.566 -1.2 -1.134 -1.814 -1.726 a 0.378 0.378 0 0 0 -0.379 -0.088 L 64 50.648 c -0.658 0.1 -1.163 0.954 -1.707 1.975 c -0.1 0.18 -0.179 0.336 -0.246 0.444 a 3.278 3.278 0 0 0 -0.466 3.072 a 0.482 0.482 0 0 1 -0.06 0.5 a 0.772 0.772 0 0 1 -0.7 0.219 a 0.639 0.639 0 0 1 -0.508 -0.441 c -0.5 -1.4 -0.233 -2.746 0.853 -4.375 c 0.145 -0.212 0.284 -0.448 0.429 -0.691 a 4.566 4.566 0 0 1 1.45 -1.744 a 0.374 0.374 0 0 0 0.182 -0.231 a 0.379 0.379 0 0 0 -0.042 -0.292 a 4.6 4.6 0 0 1 -0.567 -1.461 a 0.375 0.375 0 0 0 -0.174 -0.244 a 0.368 0.368 0 0 0 -0.3 -0.037 a 28.754 28.754 0 0 1 -5.226 0.827 c -0.485 0.047 -0.97 0.094 -1.452 0.147 a 0.378 0.378 0 0 0 -0.227 0.11 c -2.276 2.314 -1.9 7.211 -0.538 9.383 a 7.122 7.122 0 0 0 2.106 2.12 a 3.974 3.974 0 0 1 1.644 1.851 a 5.267 5.267 0 0 0 2.127 2.156 a 7.883 7.883 0 0 1 1.567 1.282 c 1.524 1.791 3.221 1.442 4.861 1.1 c 0.272 -0.056 0.547 -0.113 0.825 -0.16 c 0.133 -0.023 0.577 -0.074 0.758 0.268 c 0.133 0.259 0.23 0.485 0.318 0.689 a 3.032 3.032 0 0 0 1.594 1.8 c 0.161 0.088 0.367 0.211 0.6 0.353 c 1.453 0.87 3.441 2.062 4.4 1.175 a 0.673 0.673 0 0 1 0.526 -0.187 a 0.773 0.773 0 0 1 0.531 0.34 c 0.757 1.065 1.411 1.41 2.112 1.41 a 5.527 5.527 0 0 0 1.774 -0.444 l 0.476 -0.169 a 0.665 0.665 0 0 1 0.607 0.188 c 0.01 0.011 0.054 0.063 0.064 0.073 a 0.375 0.375 0 0 0 0.6 -0.1 a 6.1 6.1 0 0 1 1.084 -1.669 a 5.944 5.944 0 0 1 1.97 -1.229 A 10.363 10.363 0 0 0 86.7 67.9 a 0.37 0.37 0 0 0 0.167 -0.333 A 0.374 0.374 0 0 0 86.663 67.255 Z" stroke-linecap="round"/>
</g>
		<g transform="matrix(1.6376 0 0 1.6376 -214.7083 65.3654)" id="icon-0">
<path style="stroke: none; stroke-width: 1; stroke-dasharray: none; stroke-linecap: butt; stroke-dashoffset: 0; stroke-linejoin: miter; stroke-miterlimit: 4; is-custom-font: none; font-file-url: none; fill: rgb(66,111,92); fill-rule: nonzero; opacity: 1;" transform=" translate(-69.6268, -103.7309)" d="M 71.948 103.141 a 20.87 20.87 0 0 0 -4.921 -1.1 a 0.365 0.365 0 0 0 -0.4 0.3 a 7.582 7.582 0 0 0 -0.127 2.773 a 0.375 0.375 0 0 0 0.369 0.309 H 66.9 a 12.146 12.146 0 0 0 2.248 -0.4 h 0 a 11.935 11.935 0 0 1 1.2 -0.2 c 1.761 -0.251 2.431 -0.394 2.476 -0.908 C 72.865 103.444 72.267 103.247 71.948 103.141 Z" stroke-linecap="round"/>
</g>
		<g transform="matrix(1.6376 0 0 1.6376 -182.696 -10.346)" id="icon-0">
<path style="stroke: none; stroke-width: 1; stroke-dasharray: none; stroke-linecap: butt; stroke-dashoffset: 0; stroke-linejoin: miter; stroke-miterlimit: 4; is-custom-font: none; font-file-url: none; fill: rgb(66,111,92); fill-rule: nonzero; opacity: 1;" transform=" translate(-89.1751, -57.4994)" d="M 113.313 70.526 a 23.438 23.438 0 0 0 -1.291 -2.12 a 15.086 15.086 0 0 1 -1.629 -2.91 c -0.487 -1.329 -0.868 -2.607 -0.206 -3.642 a 2.577 2.577 0 0 0 0.451 -1.988 c -0.275 -1.189 -1.553 -1.969 -2.681 -2.656 a 7.759 7.759 0 0 1 -1.483 -1.05 a 0.653 0.653 0 0 1 -0.113 -0.774 c 0.839 -1.314 2.912 -0.961 4.83 -0.442 c 0.373 0.1 1.245 0.335 1.5 -0.215 c 0.42 -0.89 -1.986 -2.68 -1.99 -2.68 a 5.5 5.5 0 0 0 -3.941 -1.473 a 21.968 21.968 0 0 1 -3.156 -0.23 a 24.092 24.092 0 0 0 -2.942 -0.236 a 0.7 0.7 0 0 1 -0.637 -0.507 a 1.122 1.122 0 0 1 0.344 -1.3 a 2.731 2.731 0 0 1 1.261 -0.734 c 0.187 -0.058 0.47 -0.145 0.465 -0.453 s -0.211 -0.378 -0.892 -0.566 a 12.1 12.1 0 0 1 -2.377 -1.027 c -1.735 -0.9 -3.528 -1.839 -5.935 -0.312 l -0.276 0.176 a 9.506 9.506 0 0 1 -2.566 1.3 a 0.544 0.544 0 0 1 -0.6 -0.147 a 0.818 0.818 0 0 1 -0.109 -0.839 a 4.864 4.864 0 0 1 1.332 -1.741 a 0.374 0.374 0 0 0 -0.051 -0.6 a 9.531 9.531 0 0 0 -9.2 -0.565 a 1.111 1.111 0 0 1 -0.874 0.13 a 0.366 0.366 0 0 0 -0.407 0.231 a 0.374 0.374 0 0 0 0.134 0.448 c 2.358 1.623 4.863 3.327 7.3 4.748 A 7.509 7.509 0 0 1 89.7 50.3 l 0.26 0.312 a 0.366 0.366 0 0 0 0.308 0.133 a 0.376 0.376 0 0 0 0.291 -0.165 a 8.3 8.3 0 0 1 1.119 -1.247 a 3.654 3.654 0 0 1 2.381 -0.842 a 10.072 10.072 0 0 0 1.316 -0.208 a 0.6 0.6 0 0 1 0.6 0.156 a 0.766 0.766 0 0 1 0.185 0.707 c -0.056 0.191 -0.2 0.316 -0.486 0.389 a 7.526 7.526 0 0 1 -1.5 0.279 c -0.059 0 -0.137 0 -0.223 0 a 1.652 1.652 0 0 0 -1.187 0.25 c -0.036 0.037 -0.1 0.107 -0.18 0.2 l -0.08 0.089 a 0.375 0.375 0 0 0 0.272 0.627 a 6.065 6.065 0 0 1 3.823 1.179 a 0.491 0.491 0 0 1 0.2 0.476 a 0.765 0.765 0 0 1 -0.5 0.534 a 0.643 0.643 0 0 1 -0.66 -0.134 a 3.584 3.584 0 0 0 -2.505 -0.66 a 0.374 0.374 0 0 0 -0.188 0.7 l 0.239 0.138 a 9.458 9.458 0 0 1 1.76 1.187 c 0.343 0.316 0.673 0.629 1 0.939 a 22.246 22.246 0 0 0 4.392 3.5 l 0.2 0.112 a 15.507 15.507 0 0 1 3.28 2.271 c 1.572 1.536 2.5 2.614 2.14 4.627 a 0.476 0.476 0 0 1 -0.293 0.4 a 0.756 0.756 0 0 1 -0.7 -0.16 a 0.657 0.657 0 0 1 -0.233 -0.649 c 0.452 -2.594 -2.73 -4.308 -5.287 -5.685 a 16.16 16.16 0 0 1 -2.154 -1.286 c -0.939 -0.765 -1.9 -1.525 -2.855 -2.283 c -1.029 -0.817 -2.056 -1.631 -3.049 -2.444 c -0.395 -0.338 -0.789 -0.687 -1.172 -1.036 a 0.43 0.43 0 0 0 -0.363 -0.081 l 0.066 0.369 h 0 l -0.165 -0.344 a 0.474 0.474 0 0 1 -0.32 -0.012 a 0.371 0.371 0 0 0 -0.333 0.049 a 2.463 2.463 0 0 0 -0.939 1.072 a 4.263 4.263 0 0 1 -0.246 0.394 a 3.322 3.322 0 0 0 -0.791 1.973 a 0.6 0.6 0 0 1 -0.317 0.537 a 0.774 0.774 0 0 1 -0.739 -0.013 a 0.522 0.522 0 0 1 -0.237 -0.5 a 5.481 5.481 0 0 1 1.144 -2.91 a 4.971 4.971 0 0 1 1.412 -1.58 a 0.376 0.376 0 0 0 0.052 -0.584 c -0.386 -0.37 -0.778 -0.737 -1.17 -1.1 l -0.557 -0.521 a 0.37 0.37 0 0 0 -0.377 -0.082 a 2.259 2.259 0 0 1 -1.675 -0.146 a 7.275 7.275 0 0 0 -1.077 -0.311 a 4.077 4.077 0 0 0 -3.566 0.845 a 0.763 0.763 0 0 1 -1.069 -0.168 a 0.443 0.443 0 0 1 0.088 -0.693 l 0.169 -0.132 a 4.15 4.15 0 0 1 2.586 -1.219 l 0.318 0 a 8.761 8.761 0 0 1 1.2 0.044 a 0.371 0.371 0 0 0 0.4 -0.24 a 0.376 0.376 0 0 0 -0.146 -0.445 c -0.849 -0.559 -1.752 -1.06 -2.624 -1.545 c -0.475 -0.264 -0.952 -0.529 -1.42 -0.8 a 0.373 0.373 0 0 0 -0.461 0.065 a 0.414 0.414 0 0 1 -0.511 0.091 a 8.963 8.963 0 0 0 -2.872 -0.7 a 4.572 4.572 0 0 0 -3.169 1.2 a 0.77 0.77 0 0 1 -1.075 -0.167 a 0.457 0.457 0 0 1 0.1 -0.709 a 5.84 5.84 0 0 1 3.335 -1.618 c 0.133 0 0.265 0.01 0.415 0.022 a 0.375 0.375 0 0 0 0.2 -0.708 a 10.412 10.412 0 0 0 -5.93 -1.141 a 0.463 0.463 0 0 1 -0.417 -0.135 a 0.375 0.375 0 0 0 -0.641 0.141 a 10.059 10.059 0 0 1 -3.1 4.844 a 7.115 7.115 0 0 1 -1.347 0.863 a 0.373 0.373 0 0 0 -0.193 0.438 c 0.446 1.566 1.961 2.849 3.3 3.98 a 14.6 14.6 0 0 1 1.886 1.778 a 4.417 4.417 0 0 1 0.431 0.676 c 0.12 0.223 0.283 0.445 0.529 0.447 c 0.307 -0.007 0.417 -0.238 0.684 -0.8 c 0.745 -1.568 1.925 -3.7 3.571 -4.146 a 0.646 0.646 0 0 1 0.682 0.253 a 0.61 0.61 0 0 1 0.046 0.691 a 6.977 6.977 0 0 0 1.384 8.833 l 0.116 0.105 a 5.966 5.966 0 0 1 1.482 1.768 c 0.081 0.143 0.143 0.266 0.2 0.389 a 0.374 0.374 0 0 0 0.709 -0.191 a 1.924 1.924 0 0 1 0.04 -0.494 l 0.183 -0.947 c 0.673 -3.511 1.16 -6.047 4.051 -8.364 a 0.788 0.788 0 0 1 0.714 -0.167 a 0.619 0.619 0 0 1 0.408 0.438 c 0.661 2.123 -0.079 4.3 -0.793 6.414 c -0.163 0.48 -0.324 0.955 -0.466 1.424 c -1.23 4.048 3.841 6.706 5.507 7.579 a 0.374 0.374 0 0 0 0.547 -0.3 a 19.607 19.607 0 0 1 0.455 -2.6 c 0.109 -0.491 0.219 -0.989 0.312 -1.5 c 0.133 -0.718 0.19 -1.4 0.247 -2.065 a 7.779 7.779 0 0 1 1.082 -4.006 a 0.747 0.747 0 0 1 0.616 -0.324 a 0.588 0.588 0 0 1 0.5 0.3 a 25.678 25.678 0 0 1 2.248 6.5 a 40.632 40.632 0 0 0 1.255 4.331 a 3.733 3.733 0 0 0 2.462 2.34 a 3.749 3.749 0 0 1 1.777 1.214 c 2.389 3.219 7.211 3.583 9.171 3.59 c 0.2 0 0.48 0.03 0.805 0.061 c 0.5 0.048 1.1 0.107 1.706 0.107 c 1.324 0 2.641 -0.282 2.814 -1.571 a 2.466 2.466 0 0 0 -0.8 -1.727 A 3.584 3.584 0 0 1 113.313 70.526 Z" stroke-linecap="round"/>
</g>
		<g transform="matrix(1.6376 0 0 1.6376 -158.2931 -42.3309)" id="icon-0">
<path style="stroke: none; stroke-width: 1; stroke-dasharray: none; stroke-linecap: butt; stroke-dashoffset: 0; stroke-linejoin: miter; stroke-miterlimit: 4; is-custom-font: none; font-file-url: none; fill: rgb(66,111,92); fill-rule: nonzero; opacity: 1;" transform=" translate(-104.076, -37.968)" d="M 116.7 43.585 a 10.328 10.328 0 0 0 -3.863 -3.821 l -0.18 -0.115 c -0.446 -0.279 -0.7 -0.455 -0.7 -0.816 c -0.026 -1.211 0.653 -1.538 2 -1.744 a 0.375 0.375 0 0 0 0.035 -0.734 a 1.875 1.875 0 0 1 -0.3 -0.1 c -0.2 -0.09 -0.411 -0.187 -0.626 -0.287 a 7.792 7.792 0 0 0 -3.852 -1.048 a 2.105 2.105 0 0 0 -0.525 0.134 c -0.068 0.025 -0.137 0.05 -0.224 0.075 a 2.173 2.173 0 0 1 -0.47 0.074 c -0.111 0.009 -0.221 0.02 -0.319 0.035 c -0.885 0.1 -1.42 0.446 -1.595 1.053 c -0.059 0.237 -0.059 0.237 -0.215 0.354 a 1.244 1.244 0 0 1 -1.11 0.041 a 0.39 0.39 0 0 1 -0.249 -0.372 c 0 -0.213 0.225 -0.462 0.423 -0.681 l 0.15 -0.17 a 8.191 8.191 0 0 1 0.976 -1.055 c 0.088 -0.076 0.178 -0.149 0.269 -0.222 a 4.452 4.452 0 0 0 0.784 -0.753 a 0.9 0.9 0 0 0 0.212 -0.916 c -0.178 -0.415 -0.7 -0.518 -1.073 -0.559 a 2.553 2.553 0 0 0 -1.886 0.693 l -0.147 0.108 a 4.778 4.778 0 0 1 -1.2 0.648 a 0.375 0.375 0 0 0 -0.518 -0.109 c -0.16 0.1 -0.312 0.219 -0.465 0.334 a 4.222 4.222 0 0 1 -0.732 0.478 a 3.764 3.764 0 0 1 -0.471 0.158 a 2.95 2.95 0 0 0 -0.955 0.409 A 4.359 4.359 0 0 0 98.3 37.48 a 0.443 0.443 0 0 1 -0.266 0.392 a 0.761 0.761 0 0 1 -0.7 -0.152 a 0.673 0.673 0 0 1 -0.254 -0.662 c 0.238 -1.591 1.292 -3.412 2.877 -3.823 a 1.537 1.537 0 0 0 1.012 -0.96 a 0.375 0.375 0 0 0 -0.484 -0.471 l -0.125 0.041 a 2.606 2.606 0 0 0 -0.277 0.1 a 29.567 29.567 0 0 0 -3.295 1.7 L 96.17 34 a 9.744 9.744 0 0 0 -4.283 6.419 a 6.315 6.315 0 0 1 -0.443 1.593 a 0.373 0.373 0 0 0 0.146 0.491 a 8.934 8.934 0 0 1 1.056 0.719 a 0.347 0.347 0 0 1 0.109 0.163 a 0.37 0.37 0 0 0 0.215 0.221 a 0.361 0.361 0 0 0 0.308 -0.015 a 3.908 3.908 0 0 1 2.493 -0.553 a 20.771 20.771 0 0 1 2.274 0.513 a 0.373 0.373 0 0 0 0.351 -0.081 c 1.977 -1.754 3.991 -1.771 6.54 -1.793 c 0.535 0 1.086 -0.009 1.657 -0.031 l 0.792 -0.034 c 2.978 -0.136 7.064 -0.322 8.666 2.36 a 0.375 0.375 0 1 0 0.644 -0.385 Z" stroke-linecap="round"/>
</g>
		<g transform="matrix(1.6376 0 0 1.6376 -226.1347 81.705)" id="icon-0">
<path style="stroke: none; stroke-width: 1; stroke-dasharray: none; stroke-linecap: butt; stroke-dashoffset: 0; stroke-linejoin: miter; stroke-miterlimit: 4; is-custom-font: none; font-file-url: none; fill: rgb(66,111,92); fill-rule: nonzero; opacity: 1;" transform=" translate(-62.6496, -113.7085)" d="M 71.942 105.58 a 10.317 10.317 0 0 1 -2.391 0.678 c -3.079 0.441 -6.907 0.988 -10.3 0.01 a 17.893 17.893 0 0 0 -2.323 -0.406 a 16.085 16.085 0 0 1 -3.588 -0.751 a 0.375 0.375 0 0 0 -0.5 0.434 l 0.244 1.037 a 49.612 49.612 0 0 1 1 4.928 c 0.095 0.776 0.251 1.486 0.4 2.172 a 16.635 16.635 0 0 1 0.447 2.77 a 23.356 23.356 0 0 0 0.528 4.454 a 1.161 1.161 0 0 0 0.015 0.155 a 0.378 0.378 0 0 0 0.16 0.227 c 1.551 1.014 4.369 1.021 6.428 1.025 c 0.419 0 0.8 0 1.13 0.012 c 0.123 0 0.245 0.006 0.365 0.006 a 17.841 17.841 0 0 0 4.245 -0.641 c 0.639 -0.151 1.285 -0.3 1.961 -0.426 a 0.37 0.37 0 0 0 0.227 -0.137 a 0.623 0.623 0 0 1 0.479 -0.243 a 0.755 0.755 0 0 0 0.6 -0.257 a 1.131 1.131 0 0 0 0.083 -0.957 a 2.671 2.671 0 0 1 -0.063 -0.731 c 0.068 -0.942 0.133 -1.832 0.133 -2.777 a 25.9 25.9 0 0 1 0.514 -4.777 v 0 c 0.1 -0.544 0.165 -1.224 0.237 -1.944 a 27.534 27.534 0 0 1 0.486 -3.428 a 0.375 0.375 0 0 0 -0.512 -0.43 Z" stroke-linecap="round"/>
</g>
		<g transform="matrix(1.6376 0 0 1.6376 -240.5491 27.5807)" id="icon-0">
<path style="stroke: none; stroke-width: 1; stroke-dasharray: none; stroke-linecap: butt; stroke-dashoffset: 0; stroke-linejoin: miter; stroke-miterlimit: 4; is-custom-font: none; font-file-url: none; fill: rgb(66,111,92); fill-rule: nonzero; opacity: 1;" transform=" translate(-53.8478, -80.6587)" d="M 60.727 98.084 a 23.9 23.9 0 0 0 -0.392 -3.817 a 1.185 1.185 0 0 0 1.895 -1.13 c -0.3 -1.794 -0.56 -3.59 -0.817 -5.387 a 1.1 1.1 0 0 0 1.652 -0.944 c -0.111 -6.272 1.773 -12.331 0.918 -18.61 c -0.2 -1.428 -2.363 -0.82 -2.17 0.6 c 0.692 5.075 -0.558 10.085 -0.91 15.142 c -0.8 -6.337 -1.356 -12.7 -1.628 -19.093 c -0.061 -1.443 -2.312 -1.451 -2.25 0 a 234.592 234.592 0 0 0 2.737 26.929 A 45.054 45.054 0 0 0 55.74 82.5 c -1.7 -3.108 -3.438 -6.194 -5.189 -9.275 a 1.085 1.085 0 0 0 1.109 -1.386 a 58.408 58.408 0 0 1 -1.809 -8.581 c -0.185 -1.415 -2.438 -1.434 -2.25 0 a 63.56 63.56 0 0 0 1.352 7.159 q -1.7 -2.975 -3.381 -5.954 A 1.126 1.126 0 0 0 43.629 65.6 Q 47.813 73.014 52 80.43 c 3.133 5.563 6.36 11.087 6.481 17.654 A 1.126 1.126 0 0 0 60.727 98.084 Z" stroke-linecap="round"/>
</g>
		<g transform="matrix(1.6376 0 0 1.6376 -217.8791 27.5183)" id="icon-0">
<path style="stroke: none; stroke-width: 1; stroke-dasharray: none; stroke-linecap: butt; stroke-dashoffset: 0; stroke-linejoin: miter; stroke-miterlimit: 4; is-custom-font: none; font-file-url: none; fill: rgb(66,111,92); fill-rule: nonzero; opacity: 1;" transform=" translate(-67.6906, -80.6204)" d="M 65.382 90.169 c 1.229 -6.465 2.583 -12.91 6.594 -18.292 c 0.865 -1.162 -1.087 -2.285 -1.943 -1.136 c -4.121 5.531 -5.557 12.178 -6.821 18.83 C 62.943 90.986 65.111 91.592 65.382 90.169 Z" stroke-linecap="round"/>
</g>
		<g transform="matrix(1.6376 0 0 1.6376 -209.2789 40.3633)" id="icon-0">
<path style="stroke: none; stroke-width: 1; stroke-dasharray: none; stroke-linecap: butt; stroke-dashoffset: 0; stroke-linejoin: miter; stroke-miterlimit: 4; is-custom-font: none; font-file-url: none; fill: rgb(66,111,92); fill-rule: nonzero; opacity: 1;" transform=" translate(-72.9424, -88.4641)" d="M 82.334 71.991 a 54.95 54.95 0 0 1 -6.082 7.836 c 1.262 -1.9 2.583 -3.79 3.991 -5.7 C 81.1 72.966 79.152 71.842 78.3 73 A 113.225 113.225 0 0 0 66.338 92.841 a 1.156 1.156 0 0 0 0.307 1.4 c -0.273 0.466 -0.547 0.928 -0.822 1.39 c 0 -0.175 0 -0.354 0 -0.537 l 0 -0.366 c 0 -0.944 -0.068 -1.89 -0.135 -2.8 l -0.059 -0.841 a 0.365 0.365 0 0 0 -0.353 -0.336 a 0.382 0.382 0 0 0 -0.394 0.316 l -0.067 0.332 a 0.486 0.486 0 0 1 -0.408 0.4 a 0.731 0.731 0 0 1 -0.746 -0.234 a 0.378 0.378 0 0 0 -0.41 -0.155 a 0.374 0.374 0 0 0 -0.276 0.339 A 24.2 24.2 0 0 1 61.9 97.685 a 0.381 0.381 0 0 0 -0.017 0.121 c 0.017 1 0.008 2 0 3 l -0.008 0.778 a 0.375 0.375 0 0 0 0.041 0.174 a 0.662 0.662 0 0 1 -0.233 0.847 a 0.377 0.377 0 0 0 -0.148 0.326 c 0.033 0.468 0.056 0.947 0.056 1.438 a 0.674 0.674 0 0 1 -0.1 0.343 a 0.375 0.375 0 0 0 0.01 0.356 a 0.4 0.4 0 0 0 0.307 0.2 l 0.033 -0.363 l 0.06 0.372 c 1.04 0.125 1.992 0.2 2.908 0.219 h 0.008 a 0.376 0.376 0 0 0 0.373 -0.42 a 9.421 9.421 0 0 1 -0.078 -1.136 a 0.377 0.377 0 0 0 -0.129 -0.283 a 0.663 0.663 0 0 1 -0.249 -0.637 c 0.264 -1.755 0.564 -3.358 0.911 -4.865 a 1.086 1.086 0 0 0 1.52 -0.369 c 2.763 -4.544 5.263 -9.576 8.588 -13.723 c 2.958 -3.691 6.1 -6.819 8.527 -10.936 A 1.126 1.126 0 0 0 82.334 71.991 Z" stroke-linecap="round"/>
</g>
		<g transform="matrix(2.5223 0 0 2.5223 -196.9783 0.2563)" id="tight-bounds">
<path style="stroke: rgb(255,255,255); stroke-opacity: 0; stroke-width: 1; stroke-dasharray: none; stroke-linecap: butt; stroke-dashoffset: 0; stroke-linejoin: miter; stroke-miterlimit: 4; is-custom-font: none; font-file-url: none; fill: rgb(230,177,126); fill-rule: nonzero; opacity: 1;" transform=" translate(-119.903, -123.6)" d="M 0 123.6 c 0 -68.262 55.338 -123.6 123.6 -123.6 c 53.439 0 98.957 33.914 116.206 81.393 h -1.756 c -17.173 -46.551 -61.935 -79.744 -114.45 -79.745 c -67.352 0 -121.952 54.6 -121.952 121.952 c 0 67.352 54.6 121.952 121.952 121.952 c 52.515 0 97.277 -33.194 114.45 -79.745 l 1.756 0 c -17.249 47.479 -62.767 81.393 -116.206 81.393 c -68.262 0 -123.6 -55.338 -123.6 -123.6 z" stroke-linecap="round"/>
</g>
		<g transform="matrix(2.5223 0 0 2.5223 -0.5996 0.2563)" id="tight-bounds">
<rect style="stroke: none; stroke-width: 1; stroke-dasharray: none; stroke-linecap: butt; stroke-dashoffset: 0; stroke-linejoin: miter; stroke-miterlimit: 4; is-custom-font: none; font-file-url: none; fill: none; fill-rule: nonzero; opacity: 1;" x="-197.76" y="-123.6" rx="0" ry="0" width="395.52" height="247.2"/>
</g>
</g>
</g>
</svg>