<svg xmlns="http://www.w3.org/2000/svg" xmlns:xlink="http://www.w3.org/1999/xlink" version="1.1" width="1000" height="1000" viewBox="0 0 1000 1000" xml:space="preserve">
<desc>Created with Fabric.js 3.5.0</desc>
<defs>
</defs>
<rect x="0" y="0" width="100%" height="100%" fill="rgba(255,255,255,0)"/>
<g transform="matrix(0.6013 0 0 0.6013 613.4111 484.0633)" id="759368">
<g style="" vector-effect="non-scaling-stroke">
		<g transform="matrix(6.8729 0 0 6.8729 -1.1104 0.5045)" id="text-0">
<path style="stroke: none; stroke-width: 1; stroke-dasharray: none; stroke-linecap: butt; stroke-dashoffset: 0; stroke-linejoin: miter; stroke-miterlimit: 4; is-custom-font: none; font-file-url: none; fill: rgb(179,115,52); fill-rule: nonzero; opacity: 1;" transform=" translate(-86.01, 16.15)" d="M -0.45 1.9 L -2.05 3.4 Q -3.2 3.4 -3.6 2.65 L -3.6 2.65 Q -3.75 2.4 -3.75 2.25 Q -3.75 2.1 -3.65 2 L -3.65 2 Q 0.9 -1.35 7.15 -8.5 L 7.15 -8.5 Q 4.05 -10.2 2.35 -12.58 Q 0.65 -14.95 0.65 -16.98 Q 0.65 -19 1.9 -20.15 Q 3.15 -21.3 5.55 -21.3 L 5.55 -21.3 Q 10.1 -21.3 13.3 -16.05 L 13.3 -16.05 Q 14.7 -17.8 17.78 -21.75 Q 20.85 -25.7 22.25 -27.43 Q 23.65 -29.15 25.7 -31.5 L 25.7 -31.5 Q 29.5 -35.7 31.45 -35.7 L 31.45 -35.7 Q 32.95 -35.65 32.95 -34.1 L 32.95 -34.1 Q 32.95 -32.45 31.83 -29.58 Q 30.7 -26.7 30.03 -25.03 Q 29.35 -23.35 28.03 -20.58 Q 26.7 -17.8 25.95 -16.18 Q 25.2 -14.55 23.65 -11.38 Q 22.1 -8.2 21.5 -6.95 L 21.5 -6.95 Q 25.35 -7.2 27.6 -8.3 L 27.6 -8.3 Q 28 -8.5 28.1 -8.75 Q 28.2 -9 28.38 -9 Q 28.55 -9 28.73 -8.8 Q 28.9 -8.6 28.9 -8.4 L 28.9 -8.4 Q 28.9 -6.7 21.1 -6.05 L 21.1 -6.05 Q 19.15 -2 18.4 -0.2 L 18.4 -0.2 Q 18.2 0.2 17.8 0.2 L 17.8 0.2 Q 16.75 0.2 16.75 -1.8 L 16.75 -1.8 Q 16.55 -3.35 16.05 -6.05 L 16.05 -6.05 Q 12.1 -6.35 8.65 -7.8 L 8.65 -7.8 L 8.65 -7.75 Q 6.5 -5.1 3.83 -2.33 Q 1.15 0.45 -0.45 1.9 L -0.45 1.9 Z M 19.65 -6.9 L 19.65 -6.9 Q 31.1 -30.7 31.1 -33.45 L 31.1 -33.45 Q 31.1 -34.3 30.5 -34.3 L 30.5 -34.3 Q 29.6 -34.3 27.98 -32.5 Q 26.35 -30.7 25.35 -29.5 Q 24.35 -28.3 22.7 -26.18 Q 21.05 -24.05 19.98 -22.65 Q 18.9 -21.25 16.95 -18.63 Q 15 -16 14.05 -14.75 L 14.05 -14.75 Q 15.6 -11.85 16.85 -7.1 L 16.85 -7.1 Q 18.05 -6.9 19.65 -6.9 Z M 12.75 -15.3 L 12.75 -15.3 Q 9.8 -20.4 5.75 -20.4 L 5.75 -20.4 Q 3.95 -20.4 3.05 -19.65 Q 2.15 -18.9 2.15 -17.43 Q 2.15 -15.95 3.83 -13.78 Q 5.5 -11.6 8.35 -9.95 L 8.35 -9.95 Q 9.85 -11.7 12.75 -15.3 Z M 13.45 -13.95 L 13.45 -13.95 Q 11.85 -11.8 9.75 -9.15 L 9.75 -9.15 Q 12.7 -7.75 15.75 -7.25 L 15.75 -7.25 Q 14.7 -11.45 13.45 -13.95 Z M 19.2 -5.95 L 19.2 -5.95 L 17.1 -5.95 L 17.7 -2.8 Q 18.3 -4 19.2 -5.95 Z M 27.95 0.8 L 27.95 0.8 Q 25.7 0.8 25.7 -1.65 L 25.7 -1.65 Q 25.7 -4.9 29.22 -10.98 Q 32.75 -17.05 37.27 -21.88 Q 41.8 -26.7 44.4 -26.7 L 44.4 -26.7 Q 45.35 -26.7 45.35 -25.35 L 45.35 -25.35 Q 45.35 -23.25 41.82 -18.5 Q 38.3 -13.75 34.25 -9.6 Q 30.2 -5.45 28 -3.9 L 28 -3.9 Q 27.9 -3.1 27.9 -2.83 Q 27.9 -2.55 27.95 -2.2 Q 28 -1.85 28.35 -1.3 Q 28.7 -0.75 29.52 -0.75 Q 30.35 -0.75 32.45 -1.73 Q 34.55 -2.7 36.15 -3.7 L 36.15 -3.7 L 37.75 -4.7 Q 37.8 -4.6 37.8 -4.3 Q 37.8 -4 37.35 -3.8 L 37.35 -3.8 Q 30.6 0.8 27.95 0.8 Z M 43.55 -24.15 L 43.55 -24.15 Q 43.5 -25.25 42.9 -25.25 L 42.9 -25.25 Q 41.35 -25.25 38.2 -21.75 Q 35.05 -18.25 32.1 -13.38 Q 29.15 -8.5 28.25 -5 L 28.25 -5 Q 30.35 -6.7 33.65 -10 Q 36.95 -13.3 40.15 -17.55 Q 43.35 -21.8 43.55 -24.15 Z M 45.2 -15.25 L 45.2 -15.25 Q 45.95 -15.25 45.95 -14.5 Q 45.95 -13.75 45.25 -12.98 Q 44.55 -12.2 43.7 -12.2 L 43.7 -12.2 Q 43 -12.2 43 -13.18 Q 43 -14.15 43.8 -14.7 Q 44.6 -15.25 45.2 -15.25 Z M 40.5 -8.65 L 40.5 -8.65 Q 40.75 -9.05 41.2 -9.05 Q 41.65 -9.05 42.1 -8.6 L 42.1 -8.6 Q 42.1 -8.4 41.45 -7.7 Q 40.8 -7 39.25 -4.58 Q 37.7 -2.15 37.7 -1.35 L 37.7 -1.35 Q 37.7 -0.85 38.45 -0.75 L 38.45 -0.75 Q 39.45 -0.75 41.55 -1.73 Q 43.65 -2.7 45.25 -3.7 L 45.25 -3.7 L 46.85 -4.7 Q 46.9 -4.6 46.9 -4.3 Q 46.9 -4 46.45 -3.8 L 46.45 -3.8 Q 39.7 0.8 37.05 0.8 L 37.05 0.8 Q 35.75 0.8 35.75 -0.5 Q 35.75 -1.8 37.17 -4.13 Q 38.6 -6.45 40.5 -8.65 Z M 46.19 -8.1 L 46.19 -8.1 L 44.94 -7.75 Q 44.84 -7.75 44.84 -7.9 L 44.84 -7.9 Q 44.84 -8.35 45.97 -9 Q 47.09 -9.65 47.79 -9.65 Q 48.49 -9.65 48.49 -6.65 L 48.49 -6.65 L 48.19 -1.8 Q 48.24 -1.85 51.54 -5.48 Q 54.84 -9.1 57.27 -11.05 Q 59.69 -13 61.39 -13 L 61.39 -13 Q 62.14 -12.95 62.14 -12.48 Q 62.14 -12 61.24 -11.25 Q 60.34 -10.5 59.87 -10.5 Q 59.39 -10.5 59.29 -10.7 Q 59.19 -10.9 58.82 -10.9 Q 58.44 -10.9 57.62 -10.38 Q 56.79 -9.85 55.57 -8.65 Q 54.34 -7.45 53.24 -6.28 Q 52.14 -5.1 50.22 -3.03 Q 48.29 -0.95 46.84 0.55 L 46.84 0.55 Q 46.44 0.9 46.17 0.9 Q 45.89 0.9 45.89 0.7 L 45.89 0.7 Q 46.64 -3.15 46.64 -6.9 L 46.64 -6.9 L 46.64 -7.85 Q 46.49 -8.1 46.19 -8.1 Z M 64.99 -15.25 L 64.99 -15.25 Q 65.74 -15.25 65.74 -14.5 Q 65.74 -13.75 65.04 -12.98 Q 64.34 -12.2 63.49 -12.2 L 63.49 -12.2 Q 62.79 -12.2 62.79 -13.18 Q 62.79 -14.15 63.59 -14.7 Q 64.39 -15.25 64.99 -15.25 Z M 60.29 -8.65 L 60.29 -8.65 Q 60.54 -9.05 60.99 -9.05 Q 61.44 -9.05 61.89 -8.6 L 61.89 -8.6 Q 61.89 -8.4 61.24 -7.7 Q 60.59 -7 59.04 -4.58 Q 57.49 -2.15 57.49 -1.35 L 57.49 -1.35 Q 57.49 -0.85 58.24 -0.75 L 58.24 -0.75 Q 59.24 -0.75 61.34 -1.73 Q 63.44 -2.7 65.04 -3.7 L 65.04 -3.7 L 66.64 -4.7 Q 66.69 -4.6 66.69 -4.3 Q 66.69 -4 66.24 -3.8 L 66.24 -3.8 Q 59.49 0.8 56.84 0.8 L 56.84 0.8 Q 55.54 0.8 55.54 -0.5 Q 55.54 -1.8 56.97 -4.13 Q 58.39 -6.45 60.29 -8.65 Z M 74.64 -5.95 L 74.64 -5.95 Q 74.34 -5.95 74.34 -6.3 L 74.34 -6.3 L 74.49 -6.65 Q 75.39 -7.5 75.39 -8.1 L 75.39 -8.1 Q 75.39 -8.85 74.59 -8.85 L 74.59 -8.85 Q 72.84 -8.85 69.86 -6.43 Q 66.89 -4 66.89 -2.1 L 66.89 -2.1 Q 66.89 -1.3 67.94 -1.3 Q 68.99 -1.3 70.36 -2.18 Q 71.74 -3.05 72.71 -3.93 Q 73.69 -4.8 73.79 -4.8 L 73.79 -4.8 Q 74.29 -4.75 74.29 -4.3 L 74.29 -4.3 Q 74.29 -4.1 73.51 -3 Q 72.74 -1.9 72.74 -1.25 L 72.74 -1.25 Q 72.74 -0.75 73.56 -0.75 Q 74.39 -0.75 76.49 -1.73 Q 78.59 -2.7 80.19 -3.7 L 80.19 -3.7 L 81.79 -4.7 Q 81.84 -4.6 81.84 -4.3 Q 81.84 -4 81.39 -3.8 L 81.39 -3.8 Q 74.64 0.8 71.99 0.8 L 71.99 0.8 Q 70.69 0.8 70.69 -0.5 L 70.69 -0.5 Q 70.69 -1.05 70.89 -1.65 L 70.89 -1.65 Q 70.54 -1.25 68.81 -0.43 Q 67.09 0.4 65.74 0.4 Q 64.39 0.4 64.39 -0.85 L 64.39 -0.85 Q 64.39 -3.8 68.49 -6.88 Q 72.59 -9.95 75.39 -9.95 L 75.39 -9.95 Q 77.04 -9.95 77.04 -8.55 L 77.04 -8.55 Q 77.04 -7.75 76.04 -6.85 Q 75.04 -5.95 74.64 -5.95 Z M 112.58 -34.4 L 112.58 -34.4 Q 128.58 -34.4 129.28 -34.5 Q 129.98 -34.6 130.46 -34.6 Q 130.93 -34.6 130.93 -34.4 Q 130.93 -34.2 130.41 -33.77 Q 129.88 -33.35 128.61 -32.93 Q 127.33 -32.5 125.73 -32.5 L 125.73 -32.5 L 110.98 -32.55 Q 104.53 -32.45 98.66 -30.8 Q 92.78 -29.15 89.03 -26.85 Q 85.28 -24.55 83.08 -22.15 Q 80.88 -19.75 80.88 -18.05 L 80.88 -18.05 Q 80.88 -16 83.93 -16 Q 86.98 -16 91.86 -18.63 Q 96.73 -21.25 100.13 -24.9 L 100.13 -24.9 Q 100.68 -25.45 100.88 -25.45 L 100.88 -25.45 Q 100.98 -25.45 100.98 -25.3 Q 100.98 -25.15 100.93 -25.05 L 100.93 -25.05 Q 99.48 -21.65 94.08 -17.88 Q 88.68 -14.1 83.73 -14.1 Q 78.78 -14.1 78.78 -16.95 L 78.78 -16.95 Q 78.78 -19.1 81.58 -22.05 Q 84.38 -25 88.83 -27.78 Q 93.28 -30.55 99.71 -32.48 Q 106.13 -34.4 112.58 -34.4 Z M 110.08 -30.95 L 110.33 -30.75 Q 110.33 -30.6 106.83 -24.1 L 106.83 -24.1 Q 97.28 -6.35 93.73 0.4 L 93.73 0.4 Q 93.43 1.05 92.63 1.4 Q 91.83 1.75 91.41 1.75 Q 90.98 1.75 90.98 1.53 Q 90.98 1.3 95.23 -6.5 Q 99.48 -14.3 103.71 -22.03 Q 107.93 -29.75 107.83 -29.8 L 107.83 -29.8 Q 108.13 -30.3 108.83 -30.55 L 108.83 -30.55 L 110.08 -30.95 Z M 103.13 -0.65 L 103.13 -0.65 Q 103.58 -0.65 108.16 -4.63 Q 112.73 -8.6 113.53 -8.6 Q 114.33 -8.6 114.33 -7.9 L 114.33 -7.9 Q 114.33 -7.35 113.33 -6.2 Q 112.33 -5.05 111.36 -3.7 Q 110.38 -2.35 110.38 -1.3 L 110.38 -1.3 Q 110.38 -0.75 111.21 -0.75 Q 112.03 -0.75 114.13 -1.73 Q 116.23 -2.7 117.83 -3.7 L 117.83 -3.7 L 119.43 -4.7 Q 119.48 -4.6 119.48 -4.3 Q 119.48 -4 119.03 -3.8 L 119.03 -3.8 Q 112.28 0.8 109.63 0.8 L 109.63 0.8 Q 108.33 0.8 108.33 -0.6 L 108.33 -0.6 Q 108.33 -1.55 109.03 -2.9 Q 109.73 -4.25 110.43 -5.15 L 110.43 -5.15 L 111.08 -6.05 Q 108.83 -4.35 106.43 -2.23 Q 104.03 -0.1 102.78 0.98 Q 101.53 2.05 101.03 2.05 Q 100.53 2.05 100.53 1.33 Q 100.53 0.6 102.88 -3.7 Q 105.23 -8 108.31 -12.98 Q 111.38 -17.95 114.76 -22 Q 118.13 -26.05 119.88 -26.05 L 119.88 -26.05 Q 120.63 -26.05 120.93 -25.35 L 120.93 -25.35 Q 121.08 -25.1 121.08 -24.75 L 121.08 -24.75 Q 121.08 -21.3 110.73 -11.5 L 110.73 -11.5 Q 108.78 -9.6 106.93 -8 L 106.93 -8 Q 103.13 -1.6 103.13 -0.65 Z M 119.43 -24.2 L 119.43 -24.2 Q 119.43 -24.7 119.18 -24.7 L 119.18 -24.7 Q 118.18 -24.7 114.98 -20.3 Q 111.78 -15.9 108.18 -10.05 L 108.18 -10.05 Q 119.43 -20.3 119.43 -24.2 Z M 129.03 -3.5 L 129.03 -3.5 Q 127.48 -2.55 125.43 -2.55 L 125.43 -2.55 L 124.83 -2.55 Q 123.48 -1 121.95 -0.03 Q 120.43 0.95 119.33 0.95 L 119.33 0.95 Q 117.78 0.95 117.78 -1.05 Q 117.78 -3.05 119.93 -5.7 L 119.93 -5.7 Q 119.73 -6.25 119.73 -7.05 L 119.73 -7.05 Q 119.73 -8.8 121.25 -10.08 Q 122.78 -11.35 124.23 -11.35 L 124.23 -11.35 Q 127.28 -11.35 127.28 -8.05 L 127.28 -8.05 Q 127.28 -5.85 125.38 -3.25 L 125.38 -3.25 L 125.98 -3.25 Q 127.58 -3.25 128.73 -4 L 128.73 -4 Q 128.88 -4.15 129.13 -4.15 Q 129.38 -4.15 129.38 -3.98 Q 129.38 -3.8 129.03 -3.5 Z M 124.23 -9.25 L 124.23 -9.25 Q 124.48 -9.35 124.63 -9.35 Q 124.78 -9.35 124.78 -9.13 Q 124.78 -8.9 124.23 -8.5 L 124.23 -8.5 Q 122.23 -6.95 121.23 -5.7 L 121.23 -5.7 Q 122.33 -3.95 124.58 -3.4 L 124.58 -3.4 Q 126.53 -5.7 126.53 -7.7 L 126.53 -7.7 Q 126.53 -8.85 125.78 -9.45 Q 125.03 -10.05 123.85 -10.05 Q 122.68 -10.05 121.68 -9.38 Q 120.68 -8.7 120.68 -7.93 Q 120.68 -7.15 120.83 -6.7 L 120.83 -6.7 Q 122.38 -8.3 124.23 -9.25 Z M 120.53 -4.6 L 120.53 -4.6 Q 119.73 -3.25 119.73 -1.6 L 119.73 -1.6 Q 119.73 -0.7 120.53 -0.7 L 120.53 -0.7 Q 121.88 -0.7 123.88 -2.7 L 123.88 -2.7 Q 121.63 -3.1 120.53 -4.6 Z M 129.98 -4.15 L 129.98 -4.15 L 128.73 -3.35 Q 128.53 -3.25 128.35 -3.25 Q 128.18 -3.25 128.18 -3.45 Q 128.18 -3.65 128.33 -3.8 L 128.33 -3.8 Q 128.73 -4 130.85 -5.63 Q 132.98 -7.25 133.6 -7.25 Q 134.23 -7.25 134.23 -6.53 Q 134.23 -5.8 132.7 -3.55 Q 131.18 -1.3 131.18 -1.13 Q 131.18 -0.95 131.28 -0.95 L 131.28 -0.95 Q 131.73 -0.95 136.48 -4.9 Q 141.23 -8.85 141.63 -8.85 L 141.63 -8.85 Q 142.38 -8.85 142.38 -8.15 L 142.38 -8.15 Q 142.38 -7.7 140.65 -5.08 Q 138.93 -2.45 138.38 -1.5 L 138.38 -1.5 Q 138.43 -1.45 138.6 -1.45 Q 138.78 -1.45 140.63 -2.78 Q 142.48 -4.1 144.48 -5.6 Q 146.48 -7.1 146.83 -7.33 Q 147.18 -7.55 147.48 -7.55 L 147.48 -7.55 Q 148.08 -7.5 148.08 -6.85 L 148.08 -6.85 Q 148.08 -6.6 146.35 -4.23 Q 144.63 -1.85 144.63 -1.2 L 144.63 -1.2 Q 144.63 -0.75 145.7 -0.75 Q 146.78 -0.75 148.88 -1.73 Q 150.98 -2.7 152.58 -3.7 L 152.58 -3.7 L 154.18 -4.7 Q 154.23 -4.6 154.23 -4.3 Q 154.23 -4 153.78 -3.8 L 153.78 -3.8 Q 147.03 0.8 144.38 0.8 L 144.38 0.8 Q 142.83 0.8 142.83 -0.4 L 142.83 -0.4 Q 142.83 -1.55 143.5 -2.6 Q 144.18 -3.65 144.68 -4.38 Q 145.18 -5.1 145.18 -5.15 L 145.18 -5.15 Q 138.48 -0.25 137.45 0.23 Q 136.43 0.7 135.98 0.7 Q 135.53 0.7 135.53 -0.3 L 135.53 -0.3 L 139.13 -5.9 Q 138.53 -5.65 135.23 -3.15 Q 131.93 -0.65 130.08 1 L 130.08 1 Q 129.38 1.85 128.73 1.85 L 128.73 1.85 Q 128.08 1.7 128.08 1 L 128.08 1 Q 128.08 0.8 129.9 -1.95 Q 131.73 -4.7 131.73 -4.93 Q 131.73 -5.15 131.6 -5.15 Q 131.48 -5.15 131.18 -4.98 Q 130.88 -4.8 130.48 -4.5 Q 130.08 -4.2 129.98 -4.15 Z M 162.22 -5.95 L 162.22 -5.95 Q 161.92 -5.95 161.92 -6.3 L 161.92 -6.3 L 162.07 -6.65 Q 162.97 -7.5 162.97 -8.1 L 162.97 -8.1 Q 162.97 -8.85 162.17 -8.85 L 162.17 -8.85 Q 160.42 -8.85 157.45 -6.43 Q 154.47 -4 154.47 -2.1 L 154.47 -2.1 Q 154.47 -1.3 155.52 -1.3 Q 156.57 -1.3 157.95 -2.18 Q 159.32 -3.05 160.3 -3.93 Q 161.27 -4.8 161.37 -4.8 L 161.37 -4.8 Q 161.87 -4.75 161.87 -4.3 L 161.87 -4.3 Q 161.87 -4.1 161.1 -3 Q 160.32 -1.9 160.32 -1.25 L 160.32 -1.25 Q 160.32 -0.75 161.15 -0.75 Q 161.97 -0.75 164.07 -1.73 Q 166.17 -2.7 167.77 -3.7 L 167.77 -3.7 L 169.37 -4.7 Q 169.42 -4.6 169.42 -4.3 Q 169.42 -4 168.97 -3.8 L 168.97 -3.8 Q 162.22 0.8 159.57 0.8 L 159.57 0.8 Q 158.27 0.8 158.27 -0.5 L 158.27 -0.5 Q 158.27 -1.05 158.47 -1.65 L 158.47 -1.65 Q 158.12 -1.25 156.4 -0.43 Q 154.67 0.4 153.32 0.4 Q 151.97 0.4 151.97 -0.85 L 151.97 -0.85 Q 151.97 -3.8 156.07 -6.88 Q 160.17 -9.95 162.97 -9.95 L 162.97 -9.95 Q 164.62 -9.95 164.62 -8.55 L 164.62 -8.55 Q 164.62 -7.75 163.62 -6.85 Q 162.62 -5.95 162.22 -5.95 Z M 170.97 -5.45 L 170.97 -5.45 Q 168.57 -3.25 167.92 -3.25 L 167.92 -3.25 Q 167.72 -3.25 167.72 -3.45 Q 167.72 -3.65 167.87 -3.8 L 167.87 -3.8 Q 169.07 -4.45 170.67 -5.9 L 170.67 -5.9 Q 170.42 -6.5 170.42 -7.2 L 170.42 -7.2 Q 170.42 -8.9 172.17 -10.45 Q 173.92 -12 175.12 -12 L 175.12 -12 Q 175.77 -12 175.77 -11.38 Q 175.77 -10.75 173.77 -8.35 L 173.77 -8.35 Q 173.57 -8.1 173.32 -7.85 Q 173.07 -7.6 172.8 -7.28 Q 172.52 -6.95 172.37 -6.8 L 172.37 -6.8 Q 172.62 -6.55 173.27 -5.93 Q 173.92 -5.3 174.32 -4.9 L 174.32 -4.9 Q 175.42 -3.8 175.42 -2.15 Q 175.42 -0.5 173.37 0.73 Q 171.32 1.95 169.1 1.95 Q 166.87 1.95 166.87 0.63 Q 166.87 -0.7 168.92 -1.8 Q 170.97 -2.9 173.22 -3.3 L 173.22 -3.3 Q 172.92 -3.7 172.1 -4.35 Q 171.27 -5 170.97 -5.45 Z M 173.57 -2.7 Q 171.87 -2.5 170.37 -1.78 Q 168.87 -1.05 168.87 -0.08 Q 168.87 0.9 170.25 0.9 Q 171.62 0.9 172.7 0.25 Q 173.77 -0.4 173.77 -1.2 Q 173.77 -2 173.57 -2.7 L 173.57 -2.7 Z M 172.02 -7.2 L 172.02 -7.2 L 173.32 -8.6 Q 174.62 -10.15 174.62 -10.48 Q 174.62 -10.8 174.32 -10.8 L 174.32 -10.8 Q 173.47 -10.8 172.57 -9.98 Q 171.67 -9.15 171.67 -8.38 Q 171.67 -7.6 172.02 -7.2 Z" stroke-linecap="round"/>
</g>
		<g transform="matrix(5.0486 0 0 5.0486 -386.7855 0.507)" id="tight-bounds">
<path style="stroke: rgb(255,255,255); stroke-opacity: 0; stroke-width: 1; stroke-dasharray: none; stroke-linecap: butt; stroke-dashoffset: 0; stroke-linejoin: miter; stroke-miterlimit: 4; is-custom-font: none; font-file-url: none; fill: rgb(230,177,126); fill-rule: nonzero; opacity: 1;" transform=" translate(-121.387, -123.6)" d="M 0 123.6 c 0 -68.262 55.338 -123.6 123.6 -123.6 c 56.871 0 104.771 38.409 119.174 90.702 l -2.492 0 c -14.336 -50.951 -61.147 -88.302 -116.682 -88.302 c -66.937 0 -121.2 54.263 -121.2 121.2 c 0 66.937 54.263 121.2 121.2 121.2 c 55.535 0 102.346 -37.351 116.682 -88.302 h 2.492 c -14.403 52.293 -62.303 90.702 -119.174 90.702 c -68.262 0 -123.6 -55.338 -123.6 -123.6 z" stroke-linecap="round"/>
</g>
		<g transform="matrix(5.0486 0 0 5.0486 -1.2088 0.507)" id="tight-bounds">
<rect style="stroke: none; stroke-width: 1; stroke-dasharray: none; stroke-linecap: butt; stroke-dashoffset: 0; stroke-linejoin: miter; stroke-miterlimit: 4; is-custom-font: none; font-file-url: none; fill: none; fill-rule: nonzero; opacity: 1;" x="-197.76" y="-123.6" rx="0" ry="0" width="395.52" height="247.2"/>
</g>
</g>
</g>
</svg>