<svg xmlns="http://www.w3.org/2000/svg" xmlns:xlink="http://www.w3.org/1999/xlink" version="1.1" width="1000" height="1000" viewBox="0 0 1000 1000" xml:space="preserve">
<desc>Created with Fabric.js 3.5.0</desc>
<defs>
</defs>
<rect x="0" y="0" width="100%" height="100%" fill="rgba(255,255,255,0)"/>
<g transform="matrix(0.4444 0 0 0.4444 499.9556 499.95)" id="446272">
<g style="" vector-effect="non-scaling-stroke">
		<g transform="matrix(6.25 0 0 6.25 0 0.0019)" id="tight-bounds">
<path style="stroke: none; stroke-width: 1; stroke-dasharray: none; stroke-linecap: butt; stroke-dashoffset: 0; stroke-linejoin: miter; stroke-miterlimit: 10; is-custom-font: none; font-file-url: none; fill: rgb(105,0,90); fill-rule: nonzero; opacity: 1;" transform=" translate(-160, -180.0003)" d="M 219.58 41.008 c 0.707 0 6.365 2.829 9.547 3.89 c -1.061 0.354 -3.536 -0.707 -6.365 -1.768 c 0.707 0 2.122 0.354 3.536 1.06 c -0.707 -0.707 -6.011 -2.475 -6.718 -3.182 M 166.895 30.047 c 1.061 -0.354 13.436 1.414 19.094 1.768 c 0.354 -0.354 -0.707 -0.354 -2.122 -0.707 c 1.768 -0.354 5.304 0.707 7.779 1.06 c -7.425 0.354 -15.558 -1.768 -22.629 -1.06 c -2.475 0 -0.707 -0.707 -2.122 -1.061 M 156.641 30.047 c 6.365 0 11.315 0 2.121 0.707 c -1.061 -0.354 -2.475 -0.354 -2.121 -0.707 M 256.707 59.395 c 0.707 0 3.536 3.182 4.95 4.243 c -0.354 0.354 -3.182 -2.475 -4.596 -3.536 c 0.354 0.354 0 0 -0.354 -0.707 M 249.635 54.798 c -2.829 -2.475 -3.889 -2.475 -4.243 -3.889 c 2.475 1.414 4.243 2.829 4.243 3.889 M 204.022 32.522 c 0.354 -0.354 1.061 0.354 2.829 0.707 c -2.122 -0.354 -1.768 0 -1.061 0.707 c -2.475 -0.354 -3.182 -0.707 -2.475 -1.414 c 1.414 0.707 1.768 0.354 0.707 0 M 103.602 36.765 c 0 -0.354 1.414 -1.061 2.475 -1.414 c -1.061 0.707 -0.707 1.061 1.061 0.353 c 0 0.354 -2.122 1.061 -3.536 1.768 c 0.707 -0.354 1.414 -1.414 0 -0.707 M 211.094 28.986 c -1.061 0.354 -4.95 -1.768 -8.84 -2.475 c -2.122 -0.707 8.486 1.768 8.84 2.475 M 2.475 203.66 c 2.122 8.84 0.707 8.486 0 0 M 2.829 150.621 c 0.354 -1.414 0.707 -5.304 1.06 -4.95 c -1.061 8.486 -2.829 12.376 -3.182 18.74 c 1.061 -5.657 -0.354 3.182 -0.707 5.304 c 0.354 2.829 0.354 -1.768 1.061 -1.06 c 0.707 1.061 -1.414 15.912 -0.707 7.779 c -0.707 7.425 0 15.558 1.414 17.679 c -1.768 11.315 7.072 36.773 8.84 42.077 c 0.354 0.354 0 -1.768 0.707 -0.353 c 0.707 4.597 3.889 7.779 4.95 12.729 c 1.061 1.414 5.304 9.193 6.011 10.962 c 1.414 2.829 2.122 2.475 3.536 5.303 c 4.243 8.133 10.961 15.912 17.326 23.337 c 20.508 24.044 51.978 43.845 86.984 50.918 c 35.006 7.425 71.779 2.122 100.419 -11.669 c 1.768 -1.061 1.414 -1.414 3.536 -2.122 c 9.901 -3.182 21.923 -13.436 28.641 -17.326 c 3.182 -3.536 11.669 -9.547 12.73 -13.082 c 6.011 -4.95 12.022 -13.083 15.204 -18.387 c 1.768 -2.829 3.182 -2.829 3.889 -4.597 c -0.354 0 5.657 -7.425 7.426 -11.668 c -0.707 0 -1.768 2.122 -1.768 0 c 12.729 -24.398 19.801 -57.282 15.911 -79.912 c 0.707 27.934 -6.365 59.05 -19.801 78.851 c -6.011 12.729 -18.387 26.519 -29.701 36.42 c -1.768 1.768 -3.536 3.889 -5.658 5.304 c -6.718 5.657 -14.144 10.254 -21.922 14.497 c -18.387 10.254 -38.895 19.094 -62.94 19.447 c 41.37 -3.536 78.497 -24.398 99.006 -49.856 c -15.558 15.204 -22.276 21.215 -39.602 30.055 c -1.414 2.475 -13.083 7.425 -20.862 9.547 c 4.597 -2.122 14.144 -5.657 17.326 -8.486 c -25.812 12.376 -54.453 19.448 -81.326 15.558 c 10.254 0 24.751 0.354 38.541 -2.121 c 2.122 -0.707 3.182 -1.414 5.658 -1.768 c 26.873 -6.011 52.685 -19.094 71.072 -37.481 c -10.608 9.547 -26.519 20.862 -36.774 24.398 c 9.547 -5.304 26.873 -15.558 32.53 -23.337 c -11.315 11.315 -32.53 22.63 -45.966 27.58 c -2.122 0.354 1.414 -1.414 -2.122 0 c -4.243 1.061 -2.475 1.061 -3.536 1.768 c -16.265 4.597 -35.006 8.486 -50.563 7.072 c -2.829 -0.354 -3.889 -1.061 -6.365 -1.061 c -2.829 -0.354 -5.304 -0.354 -8.486 -0.354 c -12.376 -1.414 -25.812 -6.365 -35.713 -10.607 c -5.304 -2.475 -10.608 -4.243 -15.912 -7.426 c -4.243 -2.475 -7.779 -5.304 -11.314 -8.132 c -13.436 -9.901 -24.751 -19.801 -35.36 -33.945 c -19.094 -26.519 -28.994 -59.757 -27.58 -92.641 c 1.414 -32.884 14.497 -65.061 35.359 -88.752 c -1.061 1.061 1.414 -2.475 3.536 -4.596 c 0 0.707 -0.354 1.768 2.122 -0.707 c 2.122 -2.475 -0.707 -0.707 0.353 -2.122 c 21.923 -24.044 60.111 -43.492 99.36 -44.199 c 1.414 -1.061 3.889 -2.475 6.718 -1.768 c 0 0.354 -1.768 0.354 -1.768 0.354 c 3.889 -0.354 7.425 -0.354 9.193 0.353 c 0.354 -0.354 -1.414 -0.707 0 -0.707 c 2.475 0.707 3.182 0 4.597 0.707 c -1.061 0 -2.122 0 -2.829 0.354 c 8.84 0 14.497 2.122 23.337 2.829 c -4.597 -1.061 -5.657 -1.061 -9.193 -2.122 c 3.889 0.707 5.657 1.414 7.425 1.061 c -0.707 0 -0.354 -1.061 0.354 -0.707 c 7.072 1.768 7.779 2.475 15.204 4.95 c 0.707 -0.707 -3.182 -1.061 -4.243 -2.122 c 7.072 2.475 13.436 4.243 17.68 7.072 c -1.414 -1.061 -5.657 -2.475 -8.84 -3.889 c -0.354 0.354 1.061 0.707 1.414 1.414 c -3.536 -1.768 -8.486 -3.536 -13.436 -4.243 c 4.243 1.061 7.072 2.475 8.84 3.182 c -3.889 -0.707 -8.84 -3.182 -14.498 -4.243 c 9.193 2.829 26.519 9.193 37.127 14.851 c -3.889 -2.475 -8.486 -4.243 -10.961 -5.657 c 2.122 0.354 4.597 1.768 4.597 1.06 c 2.475 1.061 5.657 3.536 7.425 3.89 c -3.182 -2.122 -9.547 -5.304 -11.668 -6.365 c 26.519 12.022 50.21 32.177 65.414 57.989 c 1.414 2.475 3.536 8.133 5.304 8.84 c -0.354 -1.768 -1.768 -2.829 -3.182 -5.657 c 0.707 0 0.707 -1.061 0 -2.122 c -1.414 -1.768 0 1.414 -1.415 -0.354 c -6.365 -11.669 -14.144 -21.923 -26.165 -33.237 c 6.718 6.365 1.768 1.768 0.353 -0.354 c 9.193 8.133 19.801 21.923 24.398 28.995 c -0.707 -1.061 -1.061 -1.768 -0.707 -1.768 c 8.486 14.497 13.79 27.58 19.094 46.32 c 0.354 0.354 0 -1.414 0.707 -0.353 c 3.536 14.851 4.597 27.227 4.243 38.541 c 2.829 -19.094 -3.536 -48.796 -14.851 -72.133 c -1.414 -2.829 -1.414 -0.707 -2.829 -3.889 c 0 -1.061 -1.061 -3.182 -1.768 -4.597 c -14.144 -23.337 -31.47 -39.956 -51.978 -53.038 c 1.414 0.707 4.243 2.829 4.244 2.475 c -38.188 -25.105 -82.387 -28.641 -118.807 -20.862 c -2.475 1.061 -3.536 2.122 -6.365 3.536 c 5.304 -1.768 8.486 -2.122 13.437 -3.183 c 1.061 -1.061 -4.597 0.354 -2.122 -0.707 c 0.354 0.354 4.95 -0.707 6.011 -0.353 c 0 0.354 -1.414 0.707 -1.768 1.06 c 11.669 -2.475 23.691 -2.829 33.945 -2.121 c -6.011 0.354 -16.972 -0.707 -20.508 1.061 c 3.536 -0.354 8.486 -0.707 11.668 -0.354 c -4.243 0 -12.022 0.354 -15.558 0.707 c -0.354 -0.354 5.657 -1.061 1.768 -1.06 c -1.768 0.354 -4.597 0.354 -5.657 1.414 c -30.409 2.829 -60.111 18.74 -80.973 37.481 c -4.243 3.536 -9.193 7.425 -12.375 11.314 c -7.779 8.84 -12.729 17.68 -18.387 25.459 c 3.536 -7.425 11.315 -18.74 20.508 -28.287 c 9.193 -9.547 19.094 -17.68 24.398 -21.923 c 0 1.414 8.486 -5.304 11.669 -7.425 c -2.122 1.768 1.414 -0.707 2.121 -0.354 c 11.315 -6.718 20.508 -9.193 30.763 -13.083 c -2.475 0.707 -4.597 1.414 -4.951 1.061 c 2.475 -0.707 3.889 -1.414 3.536 -1.768 c -9.901 2.829 -25.459 9.547 -37.834 16.972 c 22.276 -15.204 50.564 -24.398 78.497 -24.751 c 27.934 -0.707 55.16 6.365 76.729 17.68 c 14.497 6.365 28.287 18.033 39.249 29.348 c 3.182 2.829 0.707 -0.707 5.304 4.243 c -1.414 -0.707 -2.475 -1.414 -0.707 0.707 c 2.829 3.182 -0.707 -2.475 3.889 3.182 c -0.354 0 -1.768 -1.768 -1.768 -1.061 c 12.376 10.961 21.923 30.762 27.58 43.846 c -1.414 -5.304 -4.95 -12.729 -7.779 -18.033 c 8.486 15.558 11.315 24.751 14.851 38.541 c 1.414 1.061 -0.707 -4.95 0.707 -2.121 c 0.354 2.122 0.707 8.84 2.122 9.9 c -1.061 -6.718 -2.829 -14.851 -4.243 -16.265 c 1.061 0.707 -1.768 -8.133 -3.536 -10.254 c -0.707 -5.657 -5.657 -15.558 -9.901 -22.984 c -15.204 -29.702 -42.431 -54.099 -72.839 -67.536 c 0 -0.707 -1.768 -1.414 -2.476 -2.121 c -30.055 -12.729 -66.122 -16.265 -100.773 -8.133 c -35.006 8.486 -67.889 28.641 -91.227 57.636 c 1.061 -3.536 9.901 -10.254 10.255 -13.083 c -10.254 10.961 -21.215 25.459 -28.641 41.016 c -7.779 15.558 -12.022 31.47 -13.79 43.138" stroke-linecap="round"/>
</g>
		<g transform="matrix(30.5043 0 0 30.5043 -0.0008 -0.0008)" id="text-0">
<path style="stroke: none; stroke-width: 1; stroke-dasharray: none; stroke-linecap: butt; stroke-dashoffset: 0; stroke-linejoin: miter; stroke-miterlimit: 4; is-custom-font: none; font-file-url: none; fill: rgb(105,0,90); fill-rule: nonzero; opacity: 1;" transform=" translate(-21.78, 13.72)" d="M 14.76 0.56 L 14.76 0.56 Q 12.8 -1.32 12.8 -5.08 L 12.8 -5.08 Q 12.8 -9.28 15.56 -13.76 L 15.56 -13.76 Q 17.08 -16.24 19.68 -17.84 Q 22.28 -19.44 25.36 -19.44 L 25.36 -19.44 Q 26.72 -19.44 28.28 -18.96 L 28.28 -18.96 Q 31.32 -23.96 33.24 -26.2 Q 35.16 -28.44 36.56 -29.6 L 36.56 -29.6 Q 39.72 -32.16 42.96 -32.16 L 42.96 -32.16 Q 43.6 -32.16 43.6 -31.52 L 43.6 -31.52 Q 40.96 -25.72 39.54 -19.82 Q 38.12 -13.92 37.34 -8.34 Q 36.56 -2.76 36.56 1.12 L 36.56 1.12 Q 36.56 1.68 36 1.68 L 36 1.68 Q 34.6 1.68 34.6 -1.52 L 34.6 -1.52 Q 34.6 -5.56 33.84 -8.84 L 33.84 -8.84 Q 32.44 -15.08 28.96 -17.08 L 28.96 -17.08 Q 28.52 -16.24 27.3 -13.88 Q 26.08 -11.52 25.5 -10.42 Q 24.92 -9.32 23.78 -7.34 Q 22.64 -5.36 21.84 -4.16 L 21.84 -4.16 Q 19.92 -1.28 17.68 0.88 L 17.68 0.88 Q 18.08 1 18.64 1 L 18.64 1 Q 22 1 24.2 -1.22 Q 26.4 -3.44 27.24 -6.48 L 27.24 -6.48 Q 27.36 -6.92 27.88 -6.88 L 27.88 -6.88 Q 28.2 -6.84 28.12 -6.56 L 28.12 -6.56 Q 27.24 -3.12 24.78 -0.54 Q 22.32 2.04 18.6 2.04 L 18.6 2.04 Q 17.76 2.04 16.72 1.76 L 16.72 1.76 Q 13.04 4.72 8.88 4.72 L 8.88 4.72 Q 3.48 4.72 1.2 0.48 L 1.2 0.48 Q -0.04 -1.8 -0.04 -4.44 L -0.04 -4.44 Q -0.04 -5.84 0.32 -7.36 L 0.32 -7.36 Q 1.28 -11.48 4.24 -13.24 L 4.24 -13.24 Q 5.72 -14.12 7.48 -14.12 L 7.48 -14.12 Q 8.04 -14.12 8.4 -13.78 Q 8.76 -13.44 8.92 -12.72 L 8.92 -12.72 Q 6.56 -12.72 4.68 -11.04 L 4.68 -11.04 Q 1.52 -8.28 1.52 -3.2 L 1.52 -3.2 Q 1.52 -0.12 3.38 1.62 Q 5.24 3.36 8.38 3.36 Q 11.52 3.36 14.76 0.56 Z M 25.32 -18 L 25.32 -18 Q 21.96 -18 19.28 -15.8 Q 16.6 -13.6 15.36 -10.66 Q 14.12 -7.72 14.12 -4.72 Q 14.12 -1.72 15.64 -0.16 L 15.64 -0.16 Q 17.16 -1.6 18.88 -3.94 Q 20.6 -6.28 21.6 -7.88 Q 22.6 -9.48 24.72 -13.08 Q 26.84 -16.68 27.48 -17.72 L 27.48 -17.72 Q 26.52 -18 25.32 -18 Z M 40.88 -30.6 L 40.88 -30.6 Q 37.68 -29.76 35.04 -26.64 Q 32.4 -23.52 29.64 -18.36 L 29.64 -18.36 Q 33.52 -16.24 35.08 -9.88 L 35.08 -9.88 Q 35.8 -16.68 37.42 -22.38 Q 39.04 -28.08 40.88 -30.6 Z" stroke-linecap="round"/>
</g>
		<g transform="matrix(6.25 0 0 6.25 0 0)" id="tight-bounds">
<rect style="stroke: none; stroke-width: 1; stroke-dasharray: none; stroke-linecap: butt; stroke-dashoffset: 0; stroke-linejoin: miter; stroke-miterlimit: 4; is-custom-font: none; font-file-url: none; fill: none; fill-rule: nonzero; opacity: 1;" x="-160" y="-180" rx="0" ry="0" width="320" height="360"/>
</g>
</g>
</g>
</svg>